<?xml version="1.0" encoding="UTF-8" standalone="no"?>
<!-- Created with Inkscape (http://www.inkscape.org/) -->

<svg
   xmlns:dc="http://purl.org/dc/elements/1.1/"
   xmlns:cc="http://creativecommons.org/ns#"
   xmlns:rdf="http://www.w3.org/1999/02/22-rdf-syntax-ns#"
   xmlns:svg="http://www.w3.org/2000/svg"
   xmlns="http://www.w3.org/2000/svg"
   xmlns:sodipodi="http://sodipodi.sourceforge.net/DTD/sodipodi-0.dtd"
   xmlns:inkscape="http://www.inkscape.org/namespaces/inkscape"
   width="210mm"
   height="297mm"
   viewBox="0 0 210 297"
   version="1.1"
   id="svg8"
   inkscape:version="0.92.4 5da689c313, 2019-01-14"
   sodipodi:docname="China_TST_2015_T1_D2_P3_1.svg">
  <defs
     id="defs2">
    <marker
       inkscape:stockid="Arrow2Lend"
       orient="auto"
       refY="0.0"
       refX="0.0"
       id="marker5910"
       style="overflow:visible;"
       inkscape:isstock="true">
      <path
         id="path5908"
         style="fill-rule:evenodd;stroke-width:0.625;stroke-linejoin:round;stroke:#ff0000;stroke-opacity:1;fill:#ff0000;fill-opacity:1"
         d="M 8.7185878,4.0337352 L -2.2072895,0.016013256 L 8.7185884,-4.0017078 C 6.9730900,-1.6296469 6.9831476,1.6157441 8.7185878,4.0337352 z "
         transform="scale(1.1) rotate(180) translate(1,0)" />
    </marker>
    <marker
       inkscape:stockid="Arrow2Lend"
       orient="auto"
       refY="0.0"
       refX="0.0"
       id="marker5155"
       style="overflow:visible;"
       inkscape:isstock="true">
      <path
         id="path5153"
         style="fill-rule:evenodd;stroke-width:0.625;stroke-linejoin:round;stroke:#ff0000;stroke-opacity:1;fill:#ff0000;fill-opacity:1"
         d="M 8.7185878,4.0337352 L -2.2072895,0.016013256 L 8.7185884,-4.0017078 C 6.9730900,-1.6296469 6.9831476,1.6157441 8.7185878,4.0337352 z "
         transform="scale(1.1) rotate(180) translate(1,0)" />
    </marker>
    <marker
       inkscape:isstock="true"
       style="overflow:visible;"
       id="marker4478"
       refX="0.0"
       refY="0.0"
       orient="auto"
       inkscape:stockid="Arrow2Lend">
      <path
         transform="scale(1.1) rotate(180) translate(1,0)"
         d="M 8.7185878,4.0337352 L -2.2072895,0.016013256 L 8.7185884,-4.0017078 C 6.9730900,-1.6296469 6.9831476,1.6157441 8.7185878,4.0337352 z "
         style="fill-rule:evenodd;stroke-width:0.625;stroke-linejoin:round;stroke:#ff0000;stroke-opacity:1;fill:#ff0000;fill-opacity:1"
         id="path4476" />
    </marker>
    <marker
       inkscape:isstock="true"
       style="overflow:visible;"
       id="marker3203"
       refX="0.0"
       refY="0.0"
       orient="auto"
       inkscape:stockid="Arrow2Lend"
       inkscape:collect="always">
      <path
         transform="scale(1.1) rotate(180) translate(1,0)"
         d="M 8.7185878,4.0337352 L -2.2072895,0.016013256 L 8.7185884,-4.0017078 C 6.9730900,-1.6296469 6.9831476,1.6157441 8.7185878,4.0337352 z "
         style="fill-rule:evenodd;stroke-width:0.625;stroke-linejoin:round;stroke:#ff0000;stroke-opacity:1;fill:#ff0000;fill-opacity:1"
         id="path3201" />
    </marker>
    <marker
       inkscape:isstock="true"
       style="overflow:visible;"
       id="marker2535"
       refX="0.0"
       refY="0.0"
       orient="auto"
       inkscape:stockid="Arrow2Lend"
       inkscape:collect="always">
      <path
         transform="scale(1.1) rotate(180) translate(1,0)"
         d="M 8.7185878,4.0337352 L -2.2072895,0.016013256 L 8.7185884,-4.0017078 C 6.9730900,-1.6296469 6.9831476,1.6157441 8.7185878,4.0337352 z "
         style="fill-rule:evenodd;stroke-width:0.625;stroke-linejoin:round;stroke:#000000;stroke-opacity:1;fill:#000000;fill-opacity:1"
         id="path2533" />
    </marker>
    <marker
       inkscape:isstock="true"
       style="overflow:visible;"
       id="marker2429"
       refX="0.0"
       refY="0.0"
       orient="auto"
       inkscape:stockid="Arrow2Lend">
      <path
         transform="scale(1.1) rotate(180) translate(1,0)"
         d="M 8.7185878,4.0337352 L -2.2072895,0.016013256 L 8.7185884,-4.0017078 C 6.9730900,-1.6296469 6.9831476,1.6157441 8.7185878,4.0337352 z "
         style="fill-rule:evenodd;stroke-width:0.625;stroke-linejoin:round;stroke:#000000;stroke-opacity:1;fill:#000000;fill-opacity:1"
         id="path2427" />
    </marker>
    <marker
       inkscape:isstock="true"
       style="overflow:visible;"
       id="marker2329"
       refX="0.0"
       refY="0.0"
       orient="auto"
       inkscape:stockid="Arrow2Lend"
       inkscape:collect="always">
      <path
         transform="scale(1.1) rotate(180) translate(1,0)"
         d="M 8.7185878,4.0337352 L -2.2072895,0.016013256 L 8.7185884,-4.0017078 C 6.9730900,-1.6296469 6.9831476,1.6157441 8.7185878,4.0337352 z "
         style="fill-rule:evenodd;stroke-width:0.625;stroke-linejoin:round;stroke:#000000;stroke-opacity:1;fill:#000000;fill-opacity:1"
         id="path2327" />
    </marker>
    <marker
       inkscape:isstock="true"
       style="overflow:visible;"
       id="marker2235"
       refX="0.0"
       refY="0.0"
       orient="auto"
       inkscape:stockid="Arrow2Lend">
      <path
         transform="scale(1.1) rotate(180) translate(1,0)"
         d="M 8.7185878,4.0337352 L -2.2072895,0.016013256 L 8.7185884,-4.0017078 C 6.9730900,-1.6296469 6.9831476,1.6157441 8.7185878,4.0337352 z "
         style="fill-rule:evenodd;stroke-width:0.625;stroke-linejoin:round;stroke:#000000;stroke-opacity:1;fill:#000000;fill-opacity:1"
         id="path2233" />
    </marker>
    <marker
       inkscape:isstock="true"
       style="overflow:visible;"
       id="marker2147"
       refX="0.0"
       refY="0.0"
       orient="auto"
       inkscape:stockid="Arrow2Lend">
      <path
         transform="scale(1.1) rotate(180) translate(1,0)"
         d="M 8.7185878,4.0337352 L -2.2072895,0.016013256 L 8.7185884,-4.0017078 C 6.9730900,-1.6296469 6.9831476,1.6157441 8.7185878,4.0337352 z "
         style="fill-rule:evenodd;stroke-width:0.625;stroke-linejoin:round;stroke:#000000;stroke-opacity:1;fill:#000000;fill-opacity:1"
         id="path2145" />
    </marker>
    <marker
       inkscape:isstock="true"
       style="overflow:visible;"
       id="marker2065"
       refX="0.0"
       refY="0.0"
       orient="auto"
       inkscape:stockid="Arrow2Lend">
      <path
         transform="scale(1.1) rotate(180) translate(1,0)"
         d="M 8.7185878,4.0337352 L -2.2072895,0.016013256 L 8.7185884,-4.0017078 C 6.9730900,-1.6296469 6.9831476,1.6157441 8.7185878,4.0337352 z "
         style="fill-rule:evenodd;stroke-width:0.625;stroke-linejoin:round;stroke:#000000;stroke-opacity:1;fill:#000000;fill-opacity:1"
         id="path2063" />
    </marker>
    <marker
       inkscape:isstock="true"
       style="overflow:visible;"
       id="marker1989"
       refX="0.0"
       refY="0.0"
       orient="auto"
       inkscape:stockid="Arrow2Lend">
      <path
         transform="scale(1.1) rotate(180) translate(1,0)"
         d="M 8.7185878,4.0337352 L -2.2072895,0.016013256 L 8.7185884,-4.0017078 C 6.9730900,-1.6296469 6.9831476,1.6157441 8.7185878,4.0337352 z "
         style="fill-rule:evenodd;stroke-width:0.625;stroke-linejoin:round;stroke:#000000;stroke-opacity:1;fill:#000000;fill-opacity:1"
         id="path1987" />
    </marker>
    <marker
       inkscape:isstock="true"
       style="overflow:visible;"
       id="marker1979"
       refX="0.0"
       refY="0.0"
       orient="auto"
       inkscape:stockid="Arrow2Lend">
      <path
         transform="scale(1.1) rotate(180) translate(1,0)"
         d="M 8.7185878,4.0337352 L -2.2072895,0.016013256 L 8.7185884,-4.0017078 C 6.9730900,-1.6296469 6.9831476,1.6157441 8.7185878,4.0337352 z "
         style="fill-rule:evenodd;stroke-width:0.625;stroke-linejoin:round;stroke:#000000;stroke-opacity:1;fill:#000000;fill-opacity:1"
         id="path1977" />
    </marker>
    <marker
       inkscape:stockid="Arrow2Lend"
       orient="auto"
       refY="0.0"
       refX="0.0"
       id="Arrow2Lend"
       style="overflow:visible;"
       inkscape:isstock="true"
       inkscape:collect="always">
      <path
         id="path888"
         style="fill-rule:evenodd;stroke-width:0.625;stroke-linejoin:round;stroke:#000000;stroke-opacity:1;fill:#000000;fill-opacity:1"
         d="M 8.7185878,4.0337352 L -2.2072895,0.016013256 L 8.7185884,-4.0017078 C 6.9730900,-1.6296469 6.9831476,1.6157441 8.7185878,4.0337352 z "
         transform="scale(1.1) rotate(180) translate(1,0)" />
    </marker>
    <marker
       inkscape:isstock="true"
       style="overflow:visible;"
       id="marker1835"
       refX="0.0"
       refY="0.0"
       orient="auto"
       inkscape:stockid="Arrow1Mend">
      <path
         transform="scale(0.4) rotate(180) translate(10,0)"
         style="fill-rule:evenodd;stroke:#000000;stroke-width:1pt;stroke-opacity:1;fill:#000000;fill-opacity:1"
         d="M 0.0,0.0 L 5.0,-5.0 L -12.5,0.0 L 5.0,5.0 L 0.0,0.0 z "
         id="path1833" />
    </marker>
    <marker
       inkscape:isstock="true"
       style="overflow:visible;"
       id="marker1777"
       refX="0.0"
       refY="0.0"
       orient="auto"
       inkscape:stockid="Arrow1Mend">
      <path
         transform="scale(0.4) rotate(180) translate(10,0)"
         style="fill-rule:evenodd;stroke:#000000;stroke-width:1pt;stroke-opacity:1;fill:#000000;fill-opacity:1"
         d="M 0.0,0.0 L 5.0,-5.0 L -12.5,0.0 L 5.0,5.0 L 0.0,0.0 z "
         id="path1775" />
    </marker>
    <marker
       inkscape:isstock="true"
       style="overflow:visible;"
       id="marker1725"
       refX="0.0"
       refY="0.0"
       orient="auto"
       inkscape:stockid="Arrow1Mend">
      <path
         transform="scale(0.4) rotate(180) translate(10,0)"
         style="fill-rule:evenodd;stroke:#000000;stroke-width:1pt;stroke-opacity:1;fill:#000000;fill-opacity:1"
         d="M 0.0,0.0 L 5.0,-5.0 L -12.5,0.0 L 5.0,5.0 L 0.0,0.0 z "
         id="path1723" />
    </marker>
    <marker
       inkscape:isstock="true"
       style="overflow:visible;"
       id="marker1679"
       refX="0.0"
       refY="0.0"
       orient="auto"
       inkscape:stockid="Arrow1Mend">
      <path
         transform="scale(0.4) rotate(180) translate(10,0)"
         style="fill-rule:evenodd;stroke:#000000;stroke-width:1pt;stroke-opacity:1;fill:#000000;fill-opacity:1"
         d="M 0.0,0.0 L 5.0,-5.0 L -12.5,0.0 L 5.0,5.0 L 0.0,0.0 z "
         id="path1677" />
    </marker>
    <marker
       inkscape:isstock="true"
       style="overflow:visible;"
       id="marker1639"
       refX="0.0"
       refY="0.0"
       orient="auto"
       inkscape:stockid="Arrow1Mend">
      <path
         transform="scale(0.4) rotate(180) translate(10,0)"
         style="fill-rule:evenodd;stroke:#000000;stroke-width:1pt;stroke-opacity:1;fill:#000000;fill-opacity:1"
         d="M 0.0,0.0 L 5.0,-5.0 L -12.5,0.0 L 5.0,5.0 L 0.0,0.0 z "
         id="path1637" />
    </marker>
    <marker
       inkscape:isstock="true"
       style="overflow:visible;"
       id="marker1605"
       refX="0.0"
       refY="0.0"
       orient="auto"
       inkscape:stockid="Arrow1Mend">
      <path
         transform="scale(0.4) rotate(180) translate(10,0)"
         style="fill-rule:evenodd;stroke:#000000;stroke-width:1pt;stroke-opacity:1;fill:#000000;fill-opacity:1"
         d="M 0.0,0.0 L 5.0,-5.0 L -12.5,0.0 L 5.0,5.0 L 0.0,0.0 z "
         id="path1603" />
    </marker>
    <marker
       inkscape:isstock="true"
       style="overflow:visible;"
       id="marker1577"
       refX="0.0"
       refY="0.0"
       orient="auto"
       inkscape:stockid="Arrow1Mend">
      <path
         transform="scale(0.4) rotate(180) translate(10,0)"
         style="fill-rule:evenodd;stroke:#000000;stroke-width:1pt;stroke-opacity:1;fill:#000000;fill-opacity:1"
         d="M 0.0,0.0 L 5.0,-5.0 L -12.5,0.0 L 5.0,5.0 L 0.0,0.0 z "
         id="path1575" />
    </marker>
    <marker
       inkscape:isstock="true"
       style="overflow:visible;"
       id="marker1555"
       refX="0.0"
       refY="0.0"
       orient="auto"
       inkscape:stockid="Arrow1Mend">
      <path
         transform="scale(0.4) rotate(180) translate(10,0)"
         style="fill-rule:evenodd;stroke:#000000;stroke-width:1pt;stroke-opacity:1;fill:#000000;fill-opacity:1"
         d="M 0.0,0.0 L 5.0,-5.0 L -12.5,0.0 L 5.0,5.0 L 0.0,0.0 z "
         id="path1553" />
    </marker>
  </defs>
  <sodipodi:namedview
     id="base"
     pagecolor="#ffffff"
     bordercolor="#666666"
     borderopacity="1.0"
     inkscape:pageopacity="0.0"
     inkscape:pageshadow="2"
     inkscape:zoom="0.98994949"
     inkscape:cx="370.23431"
     inkscape:cy="869.43096"
     inkscape:document-units="mm"
     inkscape:current-layer="layer1"
     showgrid="false"
     inkscape:window-width="1366"
     inkscape:window-height="744"
     inkscape:window-x="0"
     inkscape:window-y="0"
     inkscape:window-maximized="1" />
  <metadata
     id="metadata5">
    <rdf:RDF>
      <cc:Work
         rdf:about="">
        <dc:format>image/svg+xml</dc:format>
        <dc:type
           rdf:resource="http://purl.org/dc/dcmitype/StillImage" />
        <dc:title />
      </cc:Work>
    </rdf:RDF>
  </metadata>
  <g
     inkscape:label="Layer 1"
     inkscape:groupmode="layer"
     id="layer1">
    <path
       style="fill:none;stroke:#000000;stroke-width:0.35277778;stroke-linecap:butt;stroke-linejoin:miter;stroke-miterlimit:4;stroke-dasharray:none;stroke-opacity:1;marker-end:url(#marker2535)"
       d="M 55.92655,113.38051 39.328574,92.567304"
       id="path849"
       inkscape:connector-curvature="0" />
    <path
       style="fill:#000000;stroke:#000000;stroke-width:0.35277778;stroke-linecap:butt;stroke-linejoin:miter;stroke-miterlimit:4;stroke-dasharray:none;stroke-opacity:1;marker-end:url(#Arrow2Lend)"
       d="M 39.328574,92.567304 33.404823,66.613661"
       id="path851"
       inkscape:connector-curvature="0" />
    <path
       style="fill:none;stroke:#000000;stroke-width:0.35277779;stroke-linecap:butt;stroke-linejoin:miter;stroke-miterlimit:4;stroke-dasharray:1.41111115,1.41111115;stroke-opacity:1;marker-end:url(#marker1979);stroke-dashoffset:0"
       d="m 33.404823,66.613661 5.923751,-25.95364"
       id="path853"
       inkscape:connector-curvature="0" />
    <path
       style="fill:none;stroke:#000000;stroke-width:0.35277778;stroke-linecap:butt;stroke-linejoin:miter;stroke-miterlimit:4;stroke-dasharray:none;stroke-opacity:1;marker-end:url(#marker1989)"
       d="M 39.328574,40.660021 55.92655,19.846815"
       id="path855"
       inkscape:connector-curvature="0" />
    <path
       style="fill:none;stroke:#000000;stroke-width:0.35277779;stroke-linecap:butt;stroke-linejoin:miter;stroke-miterlimit:4;stroke-dasharray:2.11666673,2.11666673;stroke-opacity:1;marker-end:url(#marker2065);stroke-dashoffset:0"
       d="m 55.92655,19.846815 h 74.59063"
       id="path857"
       inkscape:connector-curvature="0" />
    <path
       style="fill:none;stroke:#000000;stroke-width:0.35277778;stroke-linecap:butt;stroke-linejoin:miter;stroke-miterlimit:4;stroke-dasharray:none;stroke-opacity:1;marker-end:url(#marker2147)"
       d="M 147.11516,92.567304 130.51718,113.38051"
       id="path859"
       inkscape:connector-curvature="0" />
    <path
       style="fill:none;stroke:#000000;stroke-width:0.35277778;stroke-linecap:butt;stroke-linejoin:miter;stroke-miterlimit:4;stroke-dasharray:none;stroke-opacity:1;marker-end:url(#marker2235)"
       d="m 153.03891,66.613664 -5.92375,25.95364"
       id="path861"
       inkscape:connector-curvature="0" />
    <path
       style="fill:#000000;stroke:#000000;stroke-width:0.35277779;stroke-linecap:butt;stroke-linejoin:miter;stroke-miterlimit:4;stroke-dasharray:1.41111115,1.41111115;stroke-opacity:1;marker-end:url(#marker2329);stroke-dashoffset:0"
       d="m 147.11516,40.660021 5.92375,25.953643"
       id="path863"
       inkscape:connector-curvature="0" />
    <path
       style="fill:none;stroke:#000000;stroke-width:0.35277778;stroke-linecap:butt;stroke-linejoin:miter;stroke-miterlimit:4;stroke-dasharray:none;stroke-opacity:1;marker-end:url(#marker2429)"
       d="m 130.51718,19.846815 16.59798,20.813206"
       id="path865"
       inkscape:connector-curvature="0" />
    <circle
       id="path3041"
       style="fill:#000000;stroke:none"
       cx="39.328575"
       cy="92.567307"
       r="1.5" />
    <circle
       id="path3043"
       style="fill:#000000;stroke:none"
       cx="33.404823"
       cy="66.613663"
       r="1.5" />
    <circle
       id="path3045"
       style="fill:#000000;stroke:none"
       cx="39.328575"
       cy="40.660023"
       r="1.5" />
    <circle
       id="path3047"
       style="fill:#000000;stroke:none"
       cx="55.926552"
       cy="19.846815"
       r="1.5" />
    <circle
       id="path3049"
       style="fill:#000000;stroke:none"
       cx="130.51718"
       cy="19.846815"
       r="1.5" />
    <circle
       id="path3051"
       style="fill:#000000;stroke:none"
       cx="147.11516"
       cy="40.660023"
       r="1.5" />
    <circle
       id="path3053"
       style="fill:#000000;stroke:none"
       cx="153.03891"
       cy="66.613663"
       r="1.5" />
    <circle
       id="path3055"
       style="fill:#000000;stroke:none"
       cx="147.11516"
       cy="92.567307"
       r="1.5" />
    <circle
       id="path3057"
       style="fill:#000000;stroke:none"
       cx="130.51718"
       cy="113.38051"
       r="1.5" />
    <circle
       id="path3059"
       style="fill:#000000;stroke:none"
       cx="55.926552"
       cy="113.38051"
       r="1.5" />
    <path
       style="fill:#ff0000;stroke:#ff0000;stroke-width:0.35277778;stroke-linecap:butt;stroke-linejoin:miter;stroke-miterlimit:4;stroke-dasharray:none;stroke-opacity:1;marker-end:url(#marker3203)"
       d="M 147.49659,40.379709 56.307984,113.1002"
       id="path3193"
       inkscape:connector-curvature="0" />
    <text
       xml:space="preserve"
       style="font-style:normal;font-weight:normal;font-size:7.0555563px;line-height:1.25;font-family:sans-serif;letter-spacing:0px;word-spacing:0px;fill:#000000;fill-opacity:1;stroke:none;stroke-width:0.26458332"
       x="26.192413"
       y="65.544586"
       id="text3407"><tspan
         sodipodi:role="line"
         id="tspan3405"
         x="26.192413"
         y="71.787102"
         style="stroke-width:0.26458332" /></text>
    <g
       id="g4902"
       transform="matrix(0.57594999,0,0,0.57594999,48.145585,34.678977)">
      <path
         style="font-style:normal;font-variant:normal;font-weight:normal;font-stretch:normal;letter-spacing:normal;word-spacing:normal;text-anchor:start;fill:#000000;fill-opacity:1;fill-rule:evenodd;stroke:#000000;stroke-width:0;stroke-linecap:butt;stroke-linejoin:miter;stroke-miterlimit:10.43299961;stroke-dasharray:none;stroke-dashoffset:0;stroke-opacity:1"
         inkscape:connector-curvature="0"
         d="m 8.84309,148.91362 -0.027,-0.051 -0.027,-0.051 -0.027,-0.048 -0.027,-0.048 -0.03,-0.048 -0.03,-0.048 -0.033,-0.045 -0.033,-0.042 -0.033,-0.045 -0.036,-0.039 -0.036,-0.042 -0.036,-0.039 -0.039,-0.036 -0.039,-0.036 -0.042,-0.033 -0.042,-0.033 -0.042,-0.033 -0.045,-0.027 -0.045,-0.03 -0.045,-0.024 -0.048,-0.024 -0.051,-0.024 -0.051,-0.018 -0.051,-0.021 -0.051,-0.015 -0.054,-0.015 -0.057,-0.012 -0.057,-0.009 -0.057,-0.009 -0.06,-0.006 -0.06,-0.003 h -0.063 l 0.015,0.327 c 0.969,0 1.179,1.224 1.179,1.311 0,0.096 -0.027,0.183 -0.042,0.258 l -0.75,2.931 c -0.075,0.267 -0.075,0.294 -0.3,0.552 -0.654,0.822 -1.269,1.059 -1.686,1.059 -0.747,0 -0.957,-0.819 -0.957,-1.404 0,-0.747 0.477,-2.583 0.822,-3.273 0.462,-0.882 1.137,-1.434 1.734,-1.434 l -0.015,-0.327 c -1.749,0 -3.6,2.193 -3.6,4.377 0,1.407 0.819,2.391 1.986,2.391 0.297,0 1.047,-0.063 1.941,-1.122 0.123,0.63 0.642,1.122 1.359,1.122 0.525,0 0.87,-0.342 1.107,-0.822 0.255,-0.537 0.45,-1.452 0.45,-1.479 0,-0.15 -0.135,-0.15 -0.177,-0.15 -0.15,0 -0.165,0.06 -0.21,0.27 -0.255,0.972 -0.525,1.851 -1.137,1.851 -0.402,0 -0.45,-0.387 -0.45,-0.687 0,-0.33 0.03,-0.447 0.192,-1.107 0.171,-0.627 0.198,-0.777 0.333,-1.344 l 0.537,-2.091 c 0.105,-0.417 0.105,-0.45 0.105,-0.507 0,-0.258 -0.18,-0.408 -0.435,-0.408 -0.357,0 -0.582,0.333 -0.627,0.66 z"
         id="path4732" />
      <path
         style="font-style:normal;font-variant:normal;font-weight:normal;font-stretch:normal;letter-spacing:normal;word-spacing:normal;text-anchor:start;fill:#000000;fill-opacity:1;fill-rule:evenodd;stroke:#000000;stroke-width:0;stroke-linecap:butt;stroke-linejoin:miter;stroke-miterlimit:10.43299961;stroke-dasharray:none;stroke-dashoffset:0;stroke-opacity:1"
         inkscape:connector-curvature="0"
         d="m 14.65409,150.14662 v -0.012 -0.012 -0.015 -0.012 -0.009 -0.012 -0.012 -0.009 -0.012 -0.009 l -0.003,-0.009 v -0.009 -0.009 l -0.003,-0.009 v -0.009 -0.006 l -0.003,-0.009 v -0.006 l -0.003,-0.009 v -0.006 l -0.003,-0.012 -0.006,-0.012 -0.006,-0.009 -0.006,-0.009 -0.006,-0.009 -0.006,-0.009 -0.009,-0.006 -0.009,-0.006 -0.009,-0.006 -0.012,-0.003 -0.012,-0.003 -0.015,-0.006 h -0.006 -0.006 l -0.009,-0.003 h -0.009 l -0.006,-0.003 h -0.009 -0.009 -0.009 -0.009 l -0.012,-0.003 h -0.009 -0.012 -0.009 -0.012 -0.012 -0.012 -0.012 -0.012 -0.015 -0.012 c -0.672,0.66 -1.617,0.669 -2.049,0.669 v 0.375 c 0.252,0 0.942,0 1.512,-0.291 v 5.331 c 0,0.348 0,0.483 -1.044,0.483 h -0.393 v 0.375 c 0.186,-0.009 1.47,-0.042 1.86,-0.042 0.324,0 1.641,0.033 1.872,0.042 v -0.375 h -0.399 c -1.047,0 -1.047,-0.135 -1.047,-0.483 z"
         id="path4734" />
    </g>
    <g
       id="g4906"
       transform="matrix(0.57594999,0,0,0.57594999,13.667816,8.2192934)">
      <path
         style="font-style:normal;font-variant:normal;font-weight:normal;font-stretch:normal;letter-spacing:normal;word-spacing:normal;text-anchor:start;fill:#000000;fill-opacity:1;fill-rule:evenodd;stroke:#000000;stroke-width:0;stroke-linecap:butt;stroke-linejoin:miter;stroke-miterlimit:10.43299961;stroke-dasharray:none;stroke-dashoffset:0;stroke-opacity:1"
         inkscape:connector-curvature="0"
         d="m 30.08309,148.91362 -0.027,-0.051 -0.027,-0.051 -0.027,-0.048 -0.03,-0.048 -0.027,-0.048 -0.033,-0.048 -0.03,-0.045 -0.033,-0.042 -0.036,-0.045 -0.033,-0.039 -0.036,-0.042 -0.039,-0.039 -0.036,-0.036 -0.042,-0.036 -0.039,-0.033 -0.042,-0.033 -0.042,-0.033 -0.045,-0.027 -0.045,-0.03 -0.048,-0.024 -0.048,-0.024 -0.048,-0.024 -0.051,-0.018 -0.051,-0.021 -0.054,-0.015 -0.054,-0.015 -0.054,-0.012 -0.057,-0.009 -0.06,-0.009 -0.057,-0.006 -0.063,-0.003 h -0.06 l 0.012,0.327 c 0.972,0 1.182,1.224 1.182,1.311 0,0.096 -0.027,0.183 -0.042,0.258 l -0.75,2.931 c -0.075,0.267 -0.075,0.294 -0.3,0.552 -0.657,0.822 -1.269,1.059 -1.689,1.059 -0.744,0 -0.954,-0.819 -0.954,-1.404 0,-0.747 0.477,-2.583 0.819,-3.273 0.465,-0.882 1.14,-1.434 1.734,-1.434 l -0.012,-0.327 c -1.749,0 -3.6,2.193 -3.6,4.377 0,1.407 0.819,2.391 1.986,2.391 0.297,0 1.047,-0.063 1.941,-1.122 0.123,0.63 0.642,1.122 1.359,1.122 0.525,0 0.867,-0.342 1.107,-0.822 0.252,-0.537 0.45,-1.452 0.45,-1.479 0,-0.15 -0.135,-0.15 -0.18,-0.15 -0.15,0 -0.162,0.06 -0.21,0.27 -0.252,0.972 -0.525,1.851 -1.134,1.851 -0.402,0 -0.45,-0.387 -0.45,-0.687 0,-0.33 0.03,-0.447 0.192,-1.107 0.168,-0.627 0.198,-0.777 0.333,-1.344 l 0.534,-2.091 c 0.108,-0.417 0.108,-0.45 0.108,-0.507 0,-0.258 -0.183,-0.408 -0.435,-0.408 -0.357,0 -0.582,0.333 -0.627,0.66 z"
         id="path4738" />
      <path
         style="font-style:normal;font-variant:normal;font-weight:normal;font-stretch:normal;letter-spacing:normal;word-spacing:normal;text-anchor:start;fill:#000000;fill-opacity:1;fill-rule:evenodd;stroke:#000000;stroke-width:0;stroke-linecap:butt;stroke-linejoin:miter;stroke-miterlimit:10.43299961;stroke-dasharray:none;stroke-dashoffset:0;stroke-opacity:1"
         inkscape:connector-curvature="0"
         d="m 37.67309,154.88962 h -0.357 c -0.03,0.231 -0.138,0.849 -0.273,0.954 -0.078,0.06 -0.885,0.06 -1.032,0.06 h -1.926 c 1.098,-0.969 1.464,-1.26 2.091,-1.752 0.774,-0.621 1.497,-1.266 1.497,-2.262 0,-1.263 -1.107,-2.037 -2.448,-2.037 -1.293,0 -2.175,0.909 -2.175,1.869 0,0.534 0.45,0.588 0.558,0.588 0.249,0 0.552,-0.18 0.552,-0.555 0,-0.186 -0.075,-0.552 -0.618,-0.552 0.324,-0.741 1.035,-0.972 1.527,-0.972 1.047,0 1.59,0.813 1.59,1.659 0,0.912 -0.648,1.632 -0.984,2.007 l -2.517,2.49 c -0.108,0.093 -0.108,0.117 -0.108,0.408 h 4.308 z"
         id="path4740" />
    </g>
    <g
       id="g4910"
       transform="matrix(0.57594999,0,0,0.57594999,-5.8428594,-19.576738)">
      <path
         style="font-style:normal;font-variant:normal;font-weight:normal;font-stretch:normal;letter-spacing:normal;word-spacing:normal;text-anchor:start;fill:#000000;fill-opacity:1;fill-rule:evenodd;stroke:#000000;stroke-width:0;stroke-linecap:butt;stroke-linejoin:miter;stroke-miterlimit:10.43299961;stroke-dasharray:none;stroke-dashoffset:0;stroke-opacity:1"
         inkscape:connector-curvature="0"
         d="m 51.32309,148.91362 -0.027,-0.051 -0.027,-0.051 -0.027,-0.048 -0.03,-0.048 -0.027,-0.048 -0.033,-0.048 -0.03,-0.045 -0.033,-0.042 -0.033,-0.045 -0.036,-0.039 -0.036,-0.042 -0.039,-0.039 -0.036,-0.036 -0.039,-0.036 -0.042,-0.033 -0.042,-0.033 -0.042,-0.033 -0.045,-0.027 -0.045,-0.03 -0.048,-0.024 -0.048,-0.024 -0.048,-0.024 -0.051,-0.018 -0.051,-0.021 -0.054,-0.015 -0.054,-0.015 -0.054,-0.012 -0.057,-0.009 -0.057,-0.009 -0.06,-0.006 -0.063,-0.003 h -0.06 l 0.012,0.327 c 0.972,0 1.182,1.224 1.182,1.311 0,0.096 -0.027,0.183 -0.042,0.258 l -0.75,2.931 c -0.075,0.267 -0.075,0.294 -0.3,0.552 -0.657,0.822 -1.269,1.059 -1.686,1.059 -0.747,0 -0.957,-0.819 -0.957,-1.404 0,-0.747 0.477,-2.583 0.819,-3.273 0.465,-0.882 1.14,-1.434 1.734,-1.434 l -0.012,-0.327 c -1.749,0 -3.6,2.193 -3.6,4.377 0,1.407 0.819,2.391 1.986,2.391 0.297,0 1.047,-0.063 1.941,-1.122 0.123,0.63 0.642,1.122 1.359,1.122 0.525,0 0.867,-0.342 1.107,-0.822 0.252,-0.537 0.45,-1.452 0.45,-1.479 0,-0.15 -0.135,-0.15 -0.177,-0.15 -0.15,0 -0.165,0.06 -0.213,0.27 -0.252,0.972 -0.525,1.851 -1.134,1.851 -0.402,0 -0.45,-0.387 -0.45,-0.687 0,-0.33 0.03,-0.447 0.192,-1.107 0.168,-0.627 0.198,-0.777 0.333,-1.344 l 0.534,-2.091 c 0.108,-0.417 0.108,-0.45 0.108,-0.507 0,-0.258 -0.183,-0.408 -0.435,-0.408 -0.357,0 -0.582,0.333 -0.627,0.66 z"
         id="path4744" />
      <path
         style="font-style:normal;font-variant:normal;font-weight:normal;font-stretch:normal;letter-spacing:normal;word-spacing:normal;text-anchor:start;fill:#000000;fill-opacity:1;fill-rule:evenodd;stroke:#000000;stroke-width:0;stroke-linecap:butt;stroke-linejoin:miter;stroke-miterlimit:10.43299961;stroke-dasharray:none;stroke-dashoffset:0;stroke-opacity:1"
         inkscape:connector-curvature="0"
         d="m 56.48609,153.30262 h 0.078 l 0.072,0.006 0.075,0.009 0.072,0.012 0.069,0.015 0.066,0.018 0.069,0.021 0.063,0.024 0.063,0.03 0.06,0.03 0.06,0.036 0.057,0.036 0.054,0.042 0.051,0.045 0.051,0.048 0.048,0.051 0.045,0.054 0.042,0.057 0.042,0.06 0.036,0.066 0.036,0.066 0.033,0.072 0.03,0.072 0.027,0.078 0.024,0.081 0.021,0.084 0.018,0.087 0.015,0.09 0.012,0.093 0.006,0.096 0.006,0.099 0.003,0.105 c 0,1.299 -0.756,1.683 -1.362,1.683 -0.417,0 -1.338,-0.114 -1.776,-0.732 0.489,-0.018 0.606,-0.366 0.606,-0.585 0,-0.333 -0.255,-0.573 -0.576,-0.573 -0.291,0 -0.588,0.177 -0.588,0.606 0,0.984 1.089,1.62 2.355,1.62 1.452,0 2.454,-0.975 2.454,-2.019 0,-0.816 -0.663,-1.632 -1.818,-1.872 1.098,-0.399 1.497,-1.179 1.497,-1.818 0,-0.825 -0.954,-1.443 -2.109,-1.443 -1.164,0 -2.049,0.567 -2.049,1.401 0,0.357 0.228,0.552 0.543,0.552 0.324,0 0.531,-0.237 0.531,-0.528 0,-0.306 -0.207,-0.525 -0.531,-0.543 0.366,-0.465 1.083,-0.579 1.473,-0.579 0.468,0 1.128,0.231 1.128,1.14 0,0.441 -0.144,0.918 -0.417,1.242 -0.348,0.399 -0.636,0.423 -1.161,0.45 -0.264,0.024 -0.282,0.024 -0.333,0.033 -0.024,0 -0.108,0.018 -0.108,0.135 0,0.147 0.093,0.147 0.27,0.147 z"
         id="path4746" />
    </g>
    <g
       id="g4926"
       transform="matrix(0.57594999,0,0,0.57594999,72.734381,-20.913085)">
      <path
         style="font-style:normal;font-variant:normal;font-weight:normal;font-stretch:normal;letter-spacing:normal;word-spacing:normal;text-anchor:start;fill:#000000;fill-opacity:1;fill-rule:evenodd;stroke:#000000;stroke-width:0;stroke-linecap:butt;stroke-linejoin:miter;stroke-miterlimit:10.43299961;stroke-dasharray:none;stroke-dashoffset:0;stroke-opacity:1"
         inkscape:connector-curvature="0"
         d="m 151.72709,148.91362 -0.027,-0.051 -0.027,-0.051 -0.027,-0.048 -0.03,-0.048 -0.027,-0.048 -0.033,-0.048 -0.03,-0.045 -0.033,-0.042 -0.036,-0.045 -0.033,-0.039 -0.036,-0.042 -0.039,-0.039 -0.036,-0.036 -0.042,-0.036 -0.039,-0.033 -0.042,-0.033 -0.042,-0.033 -0.045,-0.027 -0.045,-0.03 -0.048,-0.024 -0.048,-0.024 -0.048,-0.024 -0.051,-0.018 -0.051,-0.021 -0.054,-0.015 -0.054,-0.015 -0.054,-0.012 -0.057,-0.009 -0.06,-0.009 -0.057,-0.006 -0.063,-0.003 h -0.06 l 0.012,0.327 c 0.972,0 1.182,1.224 1.182,1.311 0,0.096 -0.027,0.183 -0.042,0.258 l -0.75,2.931 c -0.075,0.267 -0.075,0.294 -0.3,0.552 -0.657,0.822 -1.269,1.059 -1.686,1.059 -0.747,0 -0.957,-0.819 -0.957,-1.404 0,-0.747 0.477,-2.583 0.819,-3.273 0.465,-0.882 1.14,-1.434 1.734,-1.434 l -0.012,-0.327 c -1.749,0 -3.6,2.193 -3.6,4.377 0,1.407 0.819,2.391 1.986,2.391 0.297,0 1.047,-0.063 1.941,-1.122 0.123,0.63 0.642,1.122 1.359,1.122 0.525,0 0.867,-0.342 1.107,-0.822 0.252,-0.537 0.45,-1.452 0.45,-1.479 0,-0.15 -0.135,-0.15 -0.177,-0.15 -0.15,0 -0.165,0.06 -0.213,0.27 -0.252,0.972 -0.525,1.851 -1.134,1.851 -0.402,0 -0.45,-0.387 -0.45,-0.687 0,-0.33 0.027,-0.447 0.192,-1.107 0.168,-0.627 0.198,-0.777 0.333,-1.344 l 0.534,-2.091 c 0.108,-0.417 0.108,-0.45 0.108,-0.507 0,-0.258 -0.183,-0.408 -0.435,-0.408 -0.357,0 -0.582,0.333 -0.627,0.66 z"
         id="path4772" />
      <path
         style="font-style:normal;font-variant:normal;font-weight:normal;font-stretch:normal;letter-spacing:normal;word-spacing:normal;text-anchor:start;fill:#000000;fill-opacity:1;fill-rule:evenodd;stroke:#000000;stroke-width:0;stroke-linecap:butt;stroke-linejoin:miter;stroke-miterlimit:10.43299961;stroke-dasharray:none;stroke-dashoffset:0;stroke-opacity:1"
         inkscape:connector-curvature="0"
         d="m 155.31209,156.13762 -0.006,0.012 -0.003,0.015 -0.003,0.012 -0.006,0.015 -0.003,0.015 -0.006,0.018 -0.003,0.015 -0.003,0.015 -0.009,0.033 -0.009,0.033 -0.009,0.036 -0.009,0.03 -0.003,0.018 -0.003,0.015 -0.003,0.015 -0.003,0.015 -0.003,0.015 -0.003,0.012 -0.003,0.015 -0.003,0.012 -0.003,0.009 -0.003,0.012 v 0.009 l -0.003,0.009 v 0.006 0.006 0.003 l -0.003,0.003 v 0.003 0 c 0,0.231 0.189,0.333 0.357,0.333 0.189,0 0.351,-0.135 0.408,-0.228 0.051,-0.096 0.135,-0.429 0.189,-0.648 0.051,-0.198 0.162,-0.681 0.228,-0.942 0.06,-0.231 0.126,-0.459 0.18,-0.699 0.111,-0.432 0.135,-0.51 0.435,-0.942 0.294,-0.417 0.786,-0.96 1.569,-0.96 0.606,0 0.615,0.534 0.615,0.732 0,0.627 -0.444,1.785 -0.615,2.226 -0.117,0.294 -0.159,0.387 -0.159,0.567 0,0.552 0.465,0.894 0.993,0.894 1.047,0 1.506,-1.437 1.506,-1.599 0,-0.135 -0.135,-0.135 -0.165,-0.135 -0.15,0 -0.159,0.06 -0.201,0.177 -0.24,0.837 -0.69,1.266 -1.107,1.266 -0.219,0 -0.261,-0.144 -0.261,-0.366 0,-0.237 0.051,-0.375 0.24,-0.846 0.126,-0.324 0.558,-1.431 0.558,-2.016 0,-1.017 -0.807,-1.191 -1.362,-1.191 -0.867,0 -1.452,0.528 -1.767,0.948 -0.075,-0.72 -0.687,-0.948 -1.119,-0.948 -0.45,0 -0.69,0.324 -0.825,0.561 -0.231,0.387 -0.375,0.987 -0.375,1.038 0,0.135 0.144,0.135 0.177,0.135 0.147,0 0.156,-0.033 0.231,-0.315 0.153,-0.618 0.357,-1.128 0.762,-1.128 0.273,0 0.345,0.228 0.345,0.51 0,0.201 -0.096,0.585 -0.171,0.867 -0.069,0.285 -0.174,0.714 -0.228,0.942 z"
         id="path4774" />
      <path
         style="font-style:normal;font-variant:normal;font-weight:normal;font-stretch:normal;letter-spacing:normal;word-spacing:normal;text-anchor:start;fill:#000000;fill-opacity:1;fill-rule:evenodd;stroke:#000000;stroke-width:0;stroke-linecap:butt;stroke-linejoin:miter;stroke-miterlimit:10.43299961;stroke-dasharray:none;stroke-dashoffset:0;stroke-opacity:1"
         inkscape:connector-curvature="0"
         d="m 169.19309,154.43062 h 0.03 v 0 h 0.03 0.03 l 0.03,-0.003 h 0.03 v -0.003 h 0.03 v -0.003 l 0.03,-0.003 v -0.003 l 0.03,-0.006 0.03,-0.003 v -0.006 l 0.03,-0.006 v -0.009 l 0.03,-0.006 v -0.009 -0.012 l 0.03,-0.009 v -0.012 -0.006 l 0.03,-0.006 v -0.009 -0.006 -0.006 -0.009 -0.009 -0.006 -0.009 l 0.03,-0.009 v -0.009 -0.009 -0.012 -0.009 -0.012 -0.009 -0.012 -0.012 c 0,-0.258 -0.24,-0.258 -0.42,-0.258 h -6.231 c -0.168,0 -0.417,0 -0.417,0.249 0,0.261 0.24,0.261 0.417,0.261 z"
         id="path4776" />
      <path
         style="font-style:normal;font-variant:normal;font-weight:normal;font-stretch:normal;letter-spacing:normal;word-spacing:normal;text-anchor:start;fill:#000000;fill-opacity:1;fill-rule:evenodd;stroke:#000000;stroke-width:0;stroke-linecap:butt;stroke-linejoin:miter;stroke-miterlimit:10.43299961;stroke-dasharray:none;stroke-dashoffset:0;stroke-opacity:1"
         inkscape:connector-curvature="0"
         d="m 176.00309,154.88962 h -0.33 c -0.03,0.231 -0.15,0.849 -0.3,0.954 -0.06,0.06 -0.87,0.06 -1.02,0.06 h -1.92 c 1.08,-0.969 1.47,-1.26 2.1,-1.752 0.75,-0.621 1.47,-1.266 1.47,-2.262 0,-1.263 -1.08,-2.037 -2.43,-2.037 -1.29,0 -2.19,0.909 -2.19,1.869 0,0.534 0.45,0.588 0.57,0.588 0.24,0 0.54,-0.18 0.54,-0.555 0,-0.186 -0.06,-0.552 -0.6,-0.552 0.33,-0.741 1.02,-0.972 1.53,-0.972 1.05,0 1.59,0.813 1.59,1.659 0,0.912 -0.66,1.632 -0.99,2.007 l -2.52,2.49 c -0.12,0.093 -0.12,0.117 -0.12,0.408 h 4.32 z"
         id="path4778" />
    </g>
    <g
       id="g4936"
       transform="matrix(0.57594999,0,0,0.57594999,44.136542,7.9520238)">
      <path
         style="font-style:normal;font-variant:normal;font-weight:normal;font-stretch:normal;letter-spacing:normal;word-spacing:normal;text-anchor:start;fill:#000000;fill-opacity:1;fill-rule:evenodd;stroke:#000000;stroke-width:0;stroke-linecap:butt;stroke-linejoin:miter;stroke-miterlimit:10.43299961;stroke-dasharray:none;stroke-dashoffset:0;stroke-opacity:1"
         inkscape:connector-curvature="0"
         d="m 189.68309,148.91362 -0.03,-0.051 -0.03,-0.051 -0.03,-0.048 -0.03,-0.048 -0.03,-0.048 -0.03,-0.048 -0.03,-0.045 -0.03,-0.042 -0.03,-0.045 -0.06,-0.039 -0.03,-0.042 -0.03,-0.039 -0.03,-0.036 -0.06,-0.036 -0.03,-0.033 -0.03,-0.033 -0.06,-0.033 -0.03,-0.027 -0.06,-0.03 -0.03,-0.024 -0.06,-0.024 -0.06,-0.024 -0.03,-0.018 -0.06,-0.021 -0.06,-0.015 -0.03,-0.015 -0.06,-0.012 -0.06,-0.009 -0.06,-0.009 -0.06,-0.006 -0.06,-0.003 h -0.06 v 0.327 c 0.99,0 1.2,1.224 1.2,1.311 0,0.096 -0.03,0.183 -0.06,0.258 l -0.75,2.931 c -0.06,0.267 -0.06,0.294 -0.3,0.552 -0.66,0.822 -1.26,1.059 -1.68,1.059 -0.75,0 -0.96,-0.819 -0.96,-1.404 0,-0.747 0.48,-2.583 0.81,-3.273 0.48,-0.882 1.14,-1.434 1.74,-1.434 v -0.327 c -1.77,0 -3.6,2.193 -3.6,4.377 0,1.407 0.81,2.391 1.98,2.391 0.3,0 1.05,-0.063 1.95,-1.122 0.12,0.63 0.63,1.122 1.35,1.122 0.54,0 0.87,-0.342 1.11,-0.822 0.24,-0.537 0.45,-1.452 0.45,-1.479 0,-0.15 -0.15,-0.15 -0.18,-0.15 -0.15,0 -0.18,0.06 -0.21,0.27 -0.27,0.972 -0.54,1.851 -1.14,1.851 -0.39,0 -0.45,-0.387 -0.45,-0.687 0,-0.33 0.03,-0.447 0.21,-1.107 0.15,-0.627 0.18,-0.777 0.33,-1.344 l 0.51,-2.091 c 0.12,-0.417 0.12,-0.45 0.12,-0.507 0,-0.258 -0.18,-0.408 -0.45,-0.408 -0.33,0 -0.57,0.333 -0.6,0.66 z"
         id="path4782" />
      <path
         style="font-style:normal;font-variant:normal;font-weight:normal;font-stretch:normal;letter-spacing:normal;word-spacing:normal;text-anchor:start;fill:#000000;fill-opacity:1;fill-rule:evenodd;stroke:#000000;stroke-width:0;stroke-linecap:butt;stroke-linejoin:miter;stroke-miterlimit:10.43299961;stroke-dasharray:none;stroke-dashoffset:0;stroke-opacity:1"
         inkscape:connector-curvature="0"
         d="m 193.25309,156.13762 v 0.012 0.015 0.012 0.015 l -0.03,0.015 v 0.018 0.015 0.015 0.033 l -0.03,0.033 v 0.036 0.03 0.018 0.015 l -0.03,0.015 v 0.015 0.015 0.012 0.015 0.012 0.009 0.012 0.009 0.009 0.006 0.006 0.003 0.003 0.003 0 c 0,0.231 0.18,0.333 0.36,0.333 0.18,0 0.33,-0.135 0.39,-0.228 0.06,-0.096 0.15,-0.429 0.18,-0.648 0.06,-0.198 0.18,-0.681 0.24,-0.942 0.06,-0.231 0.12,-0.459 0.18,-0.699 0.12,-0.432 0.12,-0.51 0.42,-0.942 0.3,-0.417 0.81,-0.96 1.59,-0.96 0.6,0 0.6,0.534 0.6,0.732 0,0.627 -0.45,1.785 -0.6,2.226 -0.12,0.294 -0.15,0.387 -0.15,0.567 0,0.552 0.45,0.894 0.99,0.894 1.02,0 1.5,-1.437 1.5,-1.599 0,-0.135 -0.15,-0.135 -0.18,-0.135 -0.15,0 -0.15,0.06 -0.18,0.177 -0.24,0.837 -0.69,1.266 -1.11,1.266 -0.24,0 -0.27,-0.144 -0.27,-0.366 0,-0.237 0.06,-0.375 0.24,-0.846 0.12,-0.324 0.57,-1.431 0.57,-2.016 0,-1.017 -0.81,-1.191 -1.38,-1.191 -0.87,0 -1.44,0.528 -1.77,0.948 -0.06,-0.72 -0.69,-0.948 -1.11,-0.948 -0.45,0 -0.69,0.324 -0.84,0.561 -0.21,0.387 -0.36,0.987 -0.36,1.038 0,0.135 0.15,0.135 0.18,0.135 0.15,0 0.15,-0.033 0.24,-0.315 0.15,-0.618 0.36,-1.128 0.75,-1.128 0.27,0 0.33,0.228 0.33,0.51 0,0.201 -0.09,0.585 -0.15,0.867 -0.09,0.285 -0.18,0.714 -0.24,0.942 z"
         id="path4784" />
      <path
         style="font-style:normal;font-variant:normal;font-weight:normal;font-stretch:normal;letter-spacing:normal;word-spacing:normal;text-anchor:start;fill:#000000;fill-opacity:1;fill-rule:evenodd;stroke:#000000;stroke-width:0;stroke-linecap:butt;stroke-linejoin:miter;stroke-miterlimit:10.43299961;stroke-dasharray:none;stroke-dashoffset:0;stroke-opacity:1"
         inkscape:connector-curvature="0"
         d="m 207.14309,154.43062 v 0 h 0.03 0.03 0.03 l 0.03,-0.003 v 0 l 0.03,-0.003 h 0.03 v -0.003 l 0.03,-0.003 v -0.003 l 0.03,-0.006 v -0.003 l 0.03,-0.006 v -0.006 l 0.03,-0.009 v -0.006 l 0.03,-0.009 v -0.012 l 0.03,-0.009 v -0.012 -0.006 -0.006 -0.009 l 0.03,-0.006 v -0.006 -0.009 -0.009 -0.006 -0.009 -0.009 -0.009 -0.009 l 0.03,-0.012 v -0.009 -0.012 -0.009 -0.012 -0.012 c 0,-0.258 -0.24,-0.258 -0.42,-0.258 h -6.24 c -0.15,0 -0.42,0 -0.42,0.249 0,0.261 0.24,0.261 0.42,0.261 z"
         id="path4786" />
      <path
         style="font-style:normal;font-variant:normal;font-weight:normal;font-stretch:normal;letter-spacing:normal;word-spacing:normal;text-anchor:start;fill:#000000;fill-opacity:1;fill-rule:evenodd;stroke:#000000;stroke-width:0;stroke-linecap:butt;stroke-linejoin:miter;stroke-miterlimit:10.43299961;stroke-dasharray:none;stroke-dashoffset:0;stroke-opacity:1"
         inkscape:connector-curvature="0"
         d="m 212.18309,150.14662 v -0.012 -0.012 -0.015 -0.012 -0.009 -0.012 -0.012 -0.009 -0.012 -0.009 -0.009 -0.009 -0.009 -0.009 -0.009 -0.006 -0.009 -0.006 -0.009 -0.006 -0.012 l -0.03,-0.012 v -0.009 -0.009 -0.009 -0.009 l -0.03,-0.006 v -0.006 -0.006 l -0.03,-0.003 v -0.003 l -0.03,-0.006 v 0 -0.003 h -0.03 v -0.003 0 0 h -0.03 v 0 -0.003 h -0.03 v 0 h -0.03 v 0 0 h -0.03 v 0 h -0.03 v 0 0 c -0.69,0.66 -1.62,0.669 -2.07,0.669 v 0.375 c 0.27,0 0.96,0 1.53,-0.291 v 5.331 c 0,0.348 0,0.483 -1.05,0.483 h -0.39 v 0.375 c 0.18,-0.009 1.47,-0.042 1.86,-0.042 0.33,0 1.62,0.033 1.86,0.042 v -0.375 h -0.39 c -1.05,0 -1.05,-0.135 -1.05,-0.483 z"
         id="path4788" />
    </g>
    <g
       id="g4930"
       transform="matrix(0.57594999,0,0,0.57594999,3.7661869,30.775333)">
      <path
         style="font-style:normal;font-variant:normal;font-weight:normal;font-stretch:normal;letter-spacing:normal;word-spacing:normal;text-anchor:start;fill:#000000;fill-opacity:1;fill-rule:evenodd;stroke:#000000;stroke-width:0;stroke-linecap:butt;stroke-linejoin:miter;stroke-miterlimit:10.43299961;stroke-dasharray:none;stroke-dashoffset:0;stroke-opacity:1"
         inkscape:connector-curvature="0"
         d="m 227.63309,148.91362 v -0.051 l -0.03,-0.051 -0.03,-0.048 -0.03,-0.048 -0.03,-0.048 -0.03,-0.048 -0.03,-0.045 -0.03,-0.042 -0.03,-0.045 -0.06,-0.039 -0.03,-0.042 -0.03,-0.039 -0.03,-0.036 -0.06,-0.036 -0.03,-0.033 -0.03,-0.033 -0.06,-0.033 -0.03,-0.027 -0.06,-0.03 -0.03,-0.024 -0.06,-0.024 -0.06,-0.024 -0.03,-0.018 -0.06,-0.021 -0.06,-0.015 -0.03,-0.015 -0.06,-0.012 -0.06,-0.009 -0.06,-0.009 -0.06,-0.006 -0.06,-0.003 h -0.06 v 0.327 c 0.99,0 1.2,1.224 1.2,1.311 0,0.096 -0.03,0.183 -0.06,0.258 l -0.75,2.931 c -0.06,0.267 -0.06,0.294 -0.3,0.552 -0.66,0.822 -1.26,1.059 -1.68,1.059 -0.75,0 -0.96,-0.819 -0.96,-1.404 0,-0.747 0.48,-2.583 0.81,-3.273 0.48,-0.882 1.14,-1.434 1.74,-1.434 v -0.327 c -1.74,0 -3.6,2.193 -3.6,4.377 0,1.407 0.81,2.391 1.98,2.391 0.3,0 1.05,-0.063 1.95,-1.122 0.12,0.63 0.63,1.122 1.35,1.122 0.51,0 0.87,-0.342 1.11,-0.822 0.24,-0.537 0.45,-1.452 0.45,-1.479 0,-0.15 -0.15,-0.15 -0.18,-0.15 -0.15,0 -0.15,0.06 -0.21,0.27 -0.24,0.972 -0.54,1.851 -1.14,1.851 -0.39,0 -0.45,-0.387 -0.45,-0.687 0,-0.33 0.03,-0.447 0.21,-1.107 0.15,-0.627 0.18,-0.777 0.33,-1.344 l 0.51,-2.091 c 0.12,-0.417 0.12,-0.45 0.12,-0.507 0,-0.258 -0.18,-0.408 -0.42,-0.408 -0.36,0 -0.6,0.333 -0.66,0.66 z"
         id="path4792" />
      <path
         style="font-style:normal;font-variant:normal;font-weight:normal;font-stretch:normal;letter-spacing:normal;word-spacing:normal;text-anchor:start;fill:#000000;fill-opacity:1;fill-rule:evenodd;stroke:#000000;stroke-width:0;stroke-linecap:butt;stroke-linejoin:miter;stroke-miterlimit:10.43299961;stroke-dasharray:none;stroke-dashoffset:0;stroke-opacity:1"
         inkscape:connector-curvature="0"
         d="m 231.23309,156.13762 v 0.012 0.015 0.012 0.015 l -0.03,0.015 v 0.018 0.015 0.015 0.033 l -0.03,0.033 v 0.036 0.03 0.018 0.015 0.015 l -0.03,0.015 v 0.015 0.012 0.015 0.012 0.009 0.012 0.009 0.009 0.006 0.006 0.003 0.003 0.003 0 c 0,0.231 0.18,0.333 0.33,0.333 0.21,0 0.36,-0.135 0.42,-0.228 0.06,-0.096 0.15,-0.429 0.18,-0.648 0.06,-0.198 0.18,-0.681 0.24,-0.942 0.06,-0.231 0.12,-0.459 0.18,-0.699 0.12,-0.432 0.15,-0.51 0.45,-0.942 0.27,-0.417 0.78,-0.96 1.56,-0.96 0.6,0 0.6,0.534 0.6,0.732 0,0.627 -0.45,1.785 -0.6,2.226 -0.12,0.294 -0.15,0.387 -0.15,0.567 0,0.552 0.45,0.894 0.99,0.894 1.05,0 1.5,-1.437 1.5,-1.599 0,-0.135 -0.15,-0.135 -0.18,-0.135 -0.15,0 -0.15,0.06 -0.18,0.177 -0.24,0.837 -0.69,1.266 -1.11,1.266 -0.24,0 -0.27,-0.144 -0.27,-0.366 0,-0.237 0.06,-0.375 0.24,-0.846 0.12,-0.324 0.57,-1.431 0.57,-2.016 0,-1.017 -0.81,-1.191 -1.38,-1.191 -0.87,0 -1.44,0.528 -1.77,0.948 -0.06,-0.72 -0.69,-0.948 -1.11,-0.948 -0.45,0 -0.69,0.324 -0.81,0.561 -0.24,0.387 -0.39,0.987 -0.39,1.038 0,0.135 0.15,0.135 0.18,0.135 0.15,0 0.15,-0.033 0.24,-0.315 0.15,-0.618 0.33,-1.128 0.75,-1.128 0.27,0 0.33,0.228 0.33,0.51 0,0.201 -0.09,0.585 -0.15,0.867 -0.06,0.285 -0.18,0.714 -0.24,0.942 z"
         id="path4794" />
    </g>
    <g
       id="g5586"
       transform="matrix(0.57592031,0,0,0.57592031,-18.846955,-19.033141)">
      <g
         word-spacing="normal"
         letter-spacing="normal"
         font-size-adjust="none"
         font-stretch="normal"
         font-weight="normal"
         font-variant="normal"
         font-style="normal"
         stroke-miterlimit="10.433"
         xml:space="preserve"
         transform="matrix(0.3,0,0,-0.3,-52.5,222.75)"
         id="content"
         style="font-style:normal;font-variant:normal;font-weight:normal;font-stretch:normal;letter-spacing:normal;word-spacing:normal;text-anchor:start;fill:none;fill-opacity:1;fill-rule:evenodd;stroke:#000000;stroke-linecap:butt;stroke-linejoin:miter;stroke-miterlimit:10.43299961;stroke-dasharray:none;stroke-dashoffset:0;stroke-opacity:1"><path
           id="path5581"
           d="m 474.1,425.03 -0.09,0.17 -0.09,0.17 -0.09,0.16 -0.09,0.16 -0.1,0.16 -0.1,0.16 -0.11,0.15 -0.11,0.14 -0.11,0.15 -0.12,0.13 -0.12,0.14 -0.12,0.13 -0.13,0.12 -0.13,0.12 -0.14,0.11 -0.14,0.11 -0.14,0.11 -0.15,0.09 -0.15,0.1 -0.15,0.08 -0.16,0.08 -0.17,0.08 -0.17,0.06 -0.17,0.07 -0.17,0.05 -0.18,0.05 -0.19,0.04 -0.19,0.03 -0.19,0.03 -0.2,0.02 -0.2,0.01 h -0.21 l 0.05,-1.09 c 3.23,0 3.93,-4.08 3.93,-4.37 0,-0.32 -0.09,-0.61 -0.14,-0.86 l -2.5,-9.77 c -0.25,-0.89 -0.25,-0.98 -1,-1.84 -2.18,-2.74 -4.23,-3.53 -5.62,-3.53 -2.49,0 -3.19,2.73 -3.19,4.68 0,2.49 1.59,8.61 2.74,10.91 1.54,2.94 3.79,4.78 5.78,4.78 l -0.05,1.09 c -5.83,0 -12,-7.31 -12,-14.59 0,-4.69 2.73,-7.97 6.62,-7.97 0.99,0 3.49,0.21 6.47,3.74 0.41,-2.1 2.14,-3.74 4.53,-3.74 1.75,0 2.9,1.14 3.69,2.74 0.85,1.79 1.5,4.84 1.5,4.93 0,0.5 -0.45,0.5 -0.59,0.5 -0.5,0 -0.55,-0.2 -0.7,-0.9 -0.85,-3.24 -1.75,-6.17 -3.79,-6.17 -1.34,0 -1.5,1.29 -1.5,2.29 0,1.1 0.1,1.49 0.64,3.69 0.57,2.09 0.66,2.59 1.11,4.48 l 1.79,6.97 c 0.35,1.39 0.35,1.5 0.35,1.69 0,0.86 -0.6,1.36 -1.45,1.36 -1.19,0 -1.94,-1.11 -2.09,-2.2 z"
           inkscape:connector-curvature="0"
           style="fill:#000000;stroke-width:0" /><path
           id="path5583"
           d="m 491.63,421.9 v 0.01 0 0 l 0.01,0.01 v 0 0.01 0.01 0 l 0.01,0.01 v 0.01 0.01 l 0.01,0.02 v 0.02 l 0.01,0.02 0.01,0.02 v 0.02 l 0.01,0.02 v 0.03 l 0.01,0.02 0.01,0.05 0.01,0.04 0.01,0.03 v 0.02 l 0.01,0.02 v 0.02 l 0.01,0.02 v 0.02 l 0.01,0.02 v 0.01 0.01 0.01 0 l 0.01,0.01 v 0 0.01 0 0.01 0 0 0.01 0 c 0,0.19 -0.14,0.5 -0.56,0.5 -0.69,0 -3.6,-0.28 -4.46,-0.36 -0.25,-0.03 -0.73,-0.06 -0.73,-0.8 0,-0.48 0.48,-0.48 0.87,-0.48 1.68,0 1.68,-0.25 1.68,-0.53 0,-0.24 -0.08,-0.46 -0.14,-0.77 l -4.33,-17.2 c -0.11,-0.36 -0.14,-0.74 -0.14,-1.08 0,-2.23 1.98,-3.31 3.65,-3.31 0.85,0 1.89,0.28 2.8,1.84 0.73,1.28 1.22,3.35 1.22,3.49 0,0.45 -0.45,0.45 -0.56,0.45 -0.49,0 -0.55,-0.2 -0.69,-0.84 -0.45,-1.74 -1.13,-3.97 -2.63,-3.97 -0.93,0 -1.17,0.87 -1.17,1.7 0,0.39 0.1,1.05 0.21,1.44 z"
           inkscape:connector-curvature="0"
           style="fill:#000000;stroke-width:0" /></g>    </g>
    <g
       id="g5706"
       transform="matrix(0.57592031,0,0,0.57592031,102.49341,-17.162254)">
      <g
         word-spacing="normal"
         letter-spacing="normal"
         font-size-adjust="none"
         font-stretch="normal"
         font-weight="normal"
         font-variant="normal"
         font-style="normal"
         stroke-miterlimit="10.433"
         xml:space="preserve"
         transform="matrix(0.3,0,0,-0.3,-52.5,222.75)"
         id="g5704"
         style="font-style:normal;font-variant:normal;font-weight:normal;font-stretch:normal;letter-spacing:normal;word-spacing:normal;text-anchor:start;fill:none;fill-opacity:1;fill-rule:evenodd;stroke:#000000;stroke-linecap:butt;stroke-linejoin:miter;stroke-miterlimit:10.43299961;stroke-dasharray:none;stroke-dashoffset:0;stroke-opacity:1"><path
           id="path5696"
           d="m 474.1,425.03 -0.09,0.17 -0.09,0.17 -0.09,0.16 -0.09,0.16 -0.1,0.16 -0.1,0.16 -0.11,0.15 -0.11,0.14 -0.11,0.15 -0.12,0.13 -0.12,0.14 -0.12,0.13 -0.13,0.12 -0.13,0.12 -0.14,0.11 -0.14,0.11 -0.14,0.11 -0.15,0.09 -0.15,0.1 -0.15,0.08 -0.16,0.08 -0.17,0.08 -0.17,0.06 -0.17,0.07 -0.17,0.05 -0.18,0.05 -0.19,0.04 -0.19,0.03 -0.19,0.03 -0.2,0.02 -0.2,0.01 h -0.21 l 0.05,-1.09 c 3.23,0 3.93,-4.08 3.93,-4.37 0,-0.32 -0.09,-0.61 -0.14,-0.86 l -2.5,-9.77 c -0.25,-0.89 -0.25,-0.98 -1,-1.84 -2.18,-2.74 -4.23,-3.53 -5.62,-3.53 -2.49,0 -3.19,2.73 -3.19,4.68 0,2.49 1.59,8.61 2.74,10.91 1.54,2.94 3.79,4.78 5.78,4.78 l -0.05,1.09 c -5.83,0 -12,-7.31 -12,-14.59 0,-4.69 2.73,-7.97 6.62,-7.97 0.99,0 3.49,0.21 6.47,3.74 0.41,-2.1 2.14,-3.74 4.53,-3.74 1.75,0 2.9,1.14 3.69,2.74 0.85,1.79 1.5,4.84 1.5,4.93 0,0.5 -0.45,0.5 -0.59,0.5 -0.5,0 -0.55,-0.2 -0.7,-0.9 -0.85,-3.24 -1.75,-6.17 -3.79,-6.17 -1.34,0 -1.5,1.29 -1.5,2.29 0,1.1 0.1,1.49 0.64,3.69 0.57,2.09 0.66,2.59 1.11,4.48 l 1.79,6.97 c 0.35,1.39 0.35,1.5 0.35,1.69 0,0.86 -0.6,1.36 -1.45,1.36 -1.19,0 -1.94,-1.11 -2.09,-2.2 z"
           inkscape:connector-curvature="0"
           style="fill:#000000;stroke-width:0" /><path
           id="path5698"
           d="m 486.05,400.95 -0.01,-0.04 -0.02,-0.05 -0.01,-0.04 -0.01,-0.05 -0.02,-0.05 -0.01,-0.06 -0.02,-0.05 -0.01,-0.05 -0.03,-0.11 -0.03,-0.11 -0.03,-0.12 -0.02,-0.1 -0.02,-0.06 -0.01,-0.05 -0.01,-0.05 -0.01,-0.05 -0.01,-0.05 -0.01,-0.04 -0.01,-0.05 -0.01,-0.04 -0.01,-0.03 v -0.04 l -0.01,-0.03 v -0.03 l -0.01,-0.02 v -0.02 -0.01 -0.01 -0.01 0 c 0,-0.77 0.62,-1.11 1.18,-1.11 0.63,0 1.18,0.45 1.36,0.76 0.18,0.32 0.46,1.43 0.63,2.16 0.17,0.66 0.55,2.27 0.76,3.14 0.21,0.77 0.43,1.53 0.6,2.33 0.37,1.44 0.45,1.7 1.45,3.14 0.99,1.39 2.63,3.2 5.24,3.2 2.01,0 2.04,-1.78 2.04,-2.44 0,-2.09 -1.48,-5.95 -2.04,-7.42 -0.39,-0.98 -0.54,-1.29 -0.54,-1.89 0,-1.84 1.55,-2.98 3.32,-2.98 3.48,0 5.01,4.79 5.01,5.33 0,0.45 -0.45,0.45 -0.54,0.45 -0.5,0 -0.54,-0.2 -0.68,-0.59 -0.79,-2.79 -2.29,-4.22 -3.68,-4.22 -0.74,0 -0.88,0.48 -0.88,1.22 0,0.79 0.17,1.25 0.8,2.82 0.42,1.08 1.86,4.77 1.86,6.72 0,3.39 -2.69,3.97 -4.53,3.97 -2.89,0 -4.85,-1.76 -5.89,-3.16 -0.25,2.4 -2.3,3.16 -3.74,3.16 -1.5,0 -2.3,-1.08 -2.75,-1.87 -0.76,-1.29 -1.25,-3.29 -1.25,-3.46 0,-0.45 0.49,-0.45 0.6,-0.45 0.48,0 0.51,0.11 0.76,1.05 0.52,2.06 1.19,3.76 2.55,3.76 0.9,0 1.14,-0.76 1.14,-1.7 0,-0.67 -0.31,-1.95 -0.56,-2.89 -0.24,-0.95 -0.58,-2.38 -0.77,-3.14 z"
           inkscape:connector-curvature="0"
           style="fill:#000000;stroke-width:0" /><path
           id="path5700"
           d="m 532.32,406.64 h 0.05 0.06 0.11 0.12 l 0.06,0.01 h 0.05 l 0.06,0.01 h 0.06 l 0.06,0.01 0.06,0.01 0.05,0.01 0.06,0.02 0.05,0.01 0.06,0.02 0.05,0.02 0.05,0.03 0.04,0.02 0.05,0.03 0.04,0.04 0.04,0.03 0.04,0.04 0.02,0.02 0.01,0.02 0.02,0.03 0.01,0.02 0.02,0.02 0.01,0.03 0.01,0.03 0.01,0.02 0.01,0.03 0.01,0.03 0.01,0.03 0.01,0.03 0.01,0.04 v 0.03 l 0.01,0.04 v 0.03 0.04 0.04 c 0,0.86 -0.8,0.86 -1.39,0.86 h -20.77 c -0.56,0 -1.39,0 -1.39,-0.83 0,-0.87 0.8,-0.87 1.39,-0.87 z"
           inkscape:connector-curvature="0"
           style="fill:#000000;stroke-width:0" /><path
           id="path5702"
           d="m 548.38,421.9 v 0.01 h 0.01 v 0 0.01 0 0.01 l 0.01,0.01 v 0 0.01 0.01 l 0.01,0.01 v 0.02 l 0.01,0.02 v 0.02 l 0.01,0.02 0.01,0.02 v 0.02 l 0.01,0.03 v 0.02 l 0.01,0.05 0.02,0.04 v 0.03 l 0.01,0.02 v 0.02 l 0.01,0.02 v 0.02 l 0.01,0.02 v 0.02 0.01 0.01 l 0.01,0.01 v 0 0.01 0 0.01 0 0.01 0 0 0.01 0 c 0,0.19 -0.14,0.5 -0.56,0.5 -0.69,0 -3.58,-0.28 -4.45,-0.36 -0.28,-0.03 -0.77,-0.06 -0.77,-0.8 0,-0.48 0.49,-0.48 0.91,-0.48 1.67,0 1.67,-0.25 1.67,-0.53 0,-0.24 -0.08,-0.46 -0.14,-0.77 l -4.92,-19.72 c -0.17,-0.62 -0.17,-0.68 -0.17,-0.76 0,-0.52 0.42,-1.11 1.18,-1.11 0.94,0 1.39,0.69 1.61,1.45 0.07,0.14 1.57,6.28 1.71,6.77 2.46,-0.25 4.45,-1.05 4.45,-2.86 0,-0.17 0,-0.35 -0.06,-0.69 -0.14,-0.53 -0.14,-0.7 -0.14,-1.09 0,-2.47 2.01,-3.58 3.68,-3.58 3.39,0 4.44,5.29 4.44,5.33 0,0.45 -0.45,0.45 -0.56,0.45 -0.49,0 -0.53,-0.17 -0.7,-0.84 -0.41,-1.5 -1.36,-3.97 -3.07,-3.97 -0.93,0 -1.22,0.87 -1.22,1.81 0,0.59 0,0.66 0.21,1.56 0.04,0.11 0.18,0.7 0.18,1.1 0,3.09 -4.18,3.57 -5.65,3.68 1.01,0.63 2.3,1.78 2.89,2.3 1.78,1.67 3.53,3.31 5.47,3.31 0.42,0 0.87,-0.11 1.15,-0.45 -1.5,-0.25 -1.81,-1.42 -1.81,-1.95 0,-0.77 0.6,-1.29 1.39,-1.29 0.96,0 1.99,0.77 1.99,2.22 0,1.16 -0.83,2.44 -2.68,2.44 -1.98,0 -3.79,-1.42 -5.57,-3.06 -1.47,-1.39 -2.61,-2.47 -4.05,-3.06 z"
           inkscape:connector-curvature="0"
           style="fill:#000000;stroke-width:0" /></g>    </g>
    <path
       inkscape:connector-curvature="0"
       id="path5906"
       d="M 130.51718,113.38051 39.328583,40.660024"
       style="fill:#ff0000;stroke:#ff0000;stroke-width:0.35277778;stroke-linecap:butt;stroke-linejoin:miter;stroke-miterlimit:4;stroke-dasharray:none;stroke-opacity:1;marker-end:url(#marker5910)" />
  </g>
</svg>
