<?xml version="1.0" encoding="UTF-8" standalone="no"?>
<!-- Created with Inkscape (http://www.inkscape.org/) -->
<svg
   xmlns:dc="http://purl.org/dc/elements/1.1/"
   xmlns:cc="http://web.resource.org/cc/"
   xmlns:rdf="http://www.w3.org/1999/02/22-rdf-syntax-ns#"
   xmlns:svg="http://www.w3.org/2000/svg"
   xmlns="http://www.w3.org/2000/svg"
   xmlns:sodipodi="http://sodipodi.sourceforge.net/DTD/sodipodi-0.dtd"
   xmlns:inkscape="http://www.inkscape.org/namespaces/inkscape"
   width="470"
   height="470"
   id="svg3931"
   sodipodi:version="0.32"
   inkscape:version="0.44.1"
   version="1.0"
   sodipodi:docbase="/Users/carl/Desktop"
   sodipodi:docname="turan 13-4.svg">
  <defs
     id="defs3933" />
  <sodipodi:namedview
     id="base"
     pagecolor="#ffffff"
     bordercolor="#666666"
     borderopacity="1.0"
     gridtolerance="10000"
     guidetolerance="10"
     objecttolerance="10"
     inkscape:pageopacity="0.0"
     inkscape:pageshadow="2"
     inkscape:zoom="1.192"
     inkscape:cx="250"
     inkscape:cy="225.02744"
     inkscape:document-units="px"
     inkscape:current-layer="layer1"
     height="470px"
     width="470px"
     gridspacingx="5px"
     gridspacingy="5px"
     showgrid="true"
     inkscape:window-width="823"
     inkscape:window-height="795"
     inkscape:window-x="38"
     inkscape:window-y="30" />
  <metadata
     id="metadata3936">
    <rdf:RDF>
      <cc:Work
         rdf:about="">
        <dc:format>image/svg+xml</dc:format>
        <dc:type
           rdf:resource="http://purl.org/dc/dcmitype/StillImage" />
      </cc:Work>
    </rdf:RDF>
  </metadata>
  <g
     inkscape:label="Layer 1"
     inkscape:groupmode="layer"
     id="layer1"
     transform="translate(-19.99994,-20)">
    <path
       style="fill:none;fill-rule:evenodd;stroke:black;stroke-width:1px;stroke-linecap:butt;stroke-linejoin:miter;stroke-opacity:1"
       d="M 29.999998,255 L 480,305 L 29.999998,305 L 480,255 L 29.999998,255 L 480,205 L 29.999998,205 L 480,255"
       id="path3967" />
    <path
       style="fill:none;fill-rule:evenodd;stroke:black;stroke-width:1px;stroke-linecap:butt;stroke-linejoin:miter;stroke-opacity:1"
       d="M 180,29.999999 L 205,480 L 230,29.999999 L 255,480 L 280,29.999999 L 305,480 L 330,29.999999 L 255,480 L 180,29.999999 z "
       id="path3969" />
    <path
       style="fill:none;fill-rule:evenodd;stroke:black;stroke-width:1px;stroke-linecap:butt;stroke-linejoin:miter;stroke-opacity:1"
       d="M 205,480 L 330,29.999999"
       id="path3971" />
    <path
       style="fill:none;fill-rule:evenodd;stroke:black;stroke-width:1px;stroke-linecap:butt;stroke-linejoin:miter;stroke-opacity:1"
       d="M 305,480 L 180,29.999999"
       id="path3973" />
    <path
       style="fill:none;fill-rule:evenodd;stroke:black;stroke-width:1px;stroke-linecap:butt;stroke-linejoin:miter;stroke-opacity:1"
       d="M 230,29.999999 L 305,480"
       id="path3975" />
    <path
       style="fill:none;fill-rule:evenodd;stroke:black;stroke-width:1px;stroke-linecap:butt;stroke-linejoin:miter;stroke-opacity:1"
       d="M 280,29.999999 L 205,480"
       id="path3977" />
    <path
       style="fill:none;fill-rule:evenodd;stroke:black;stroke-width:1px;stroke-linecap:butt;stroke-linejoin:miter;stroke-opacity:1"
       d="M 29.999998,205 L 480,305"
       id="path3979" />
    <path
       style="fill:none;fill-rule:evenodd;stroke:black;stroke-width:1px;stroke-linecap:butt;stroke-linejoin:miter;stroke-opacity:1"
       d="M 480,205 L 29.999998,305"
       id="path3981" />
    <path
       style="fill:none;fill-rule:evenodd;stroke:black;stroke-width:1px;stroke-linecap:butt;stroke-linejoin:miter;stroke-opacity:1"
       d="M 180,29.999999 L 29.999998,205 L 230,29.999999 L 29.999998,255 L 280,29.999999 L 29.999998,305 L 330,29.999999 L 29.999998,255 L 180,29.999999 z "
       id="path3983" />
    <path
       style="fill:none;fill-rule:evenodd;stroke:black;stroke-width:1px;stroke-linecap:butt;stroke-linejoin:miter;stroke-opacity:1"
       d="M 29.999998,205 L 280,29.999999"
       id="path3985" />
    <path
       style="fill:none;fill-rule:evenodd;stroke:black;stroke-width:1px;stroke-linecap:butt;stroke-linejoin:miter;stroke-opacity:1"
       d="M 330,29.999999 L 29.999998,205"
       id="path3987" />
    <path
       style="fill:none;fill-rule:evenodd;stroke:black;stroke-width:1px;stroke-linecap:butt;stroke-linejoin:miter;stroke-opacity:1"
       d="M 180,29.999999 L 29.999998,305 L 230,29.999999"
       id="path3989" />
    <path
       style="fill:none;fill-rule:evenodd;stroke:black;stroke-width:1px;stroke-linecap:butt;stroke-linejoin:miter;stroke-opacity:1"
       d="M 180,29.999999 L 480,205 L 230,29.999999 L 480,255 L 280,29.999999 L 480,205 L 330,29.999999 L 480,255 L 180,29.999999"
       id="path3991" />
    <path
       style="fill:none;fill-rule:evenodd;stroke:black;stroke-width:1px;stroke-linecap:butt;stroke-linejoin:miter;stroke-opacity:1"
       d="M 330,29.999999 L 480,305 L 280,29.999999"
       id="path3993" />
    <path
       style="fill:none;fill-rule:evenodd;stroke:black;stroke-width:1px;stroke-linecap:butt;stroke-linejoin:miter;stroke-opacity:1"
       d="M 230,29.999999 L 480,305 L 180,29.999999"
       id="path3995" />
    <path
       style="fill:none;fill-rule:evenodd;stroke:black;stroke-width:1px;stroke-linecap:butt;stroke-linejoin:miter;stroke-opacity:1"
       d="M 29.999998,255 L 205,480 L 29.999998,305 L 255,480 L 29.999998,255 L 305,480 L 29.999998,205 L 255,480"
       id="path3997" />
    <path
       style="fill:none;fill-rule:evenodd;stroke:black;stroke-width:1px;stroke-linecap:butt;stroke-linejoin:miter;stroke-opacity:1"
       d="M 205,480 L 29.999998,205"
       id="path3999" />
    <path
       style="fill:none;fill-rule:evenodd;stroke:black;stroke-width:1px;stroke-linecap:butt;stroke-linejoin:miter;stroke-opacity:1"
       d="M 29.999998,305 L 305,480"
       id="path4001" />
    <path
       style="fill:none;fill-rule:evenodd;stroke:black;stroke-width:1px;stroke-linecap:butt;stroke-linejoin:miter;stroke-opacity:1"
       d="M 255,480 L 480,305 L 305,480 L 480,255 L 255,480 L 480,205 L 205,480 L 480,255"
       id="path4003" />
    <path
       style="fill:none;fill-rule:evenodd;stroke:black;stroke-width:1px;stroke-linecap:butt;stroke-linejoin:miter;stroke-opacity:1"
       d="M 480,305 L 205,480"
       id="path4005" />
    <path
       style="fill:none;fill-rule:evenodd;stroke:black;stroke-width:1px;stroke-linecap:butt;stroke-linejoin:miter;stroke-opacity:1"
       d="M 480,205 L 305,480"
       id="path4007" />
    <path
       sodipodi:type="arc"
       style="fill:#afe;fill-opacity:1;stroke:black;stroke-width:1.57364655;stroke-miterlimit:4;stroke-dasharray:none;stroke-opacity:1"
       id="path3953"
       sodipodi:cx="223.57382"
       sodipodi:cy="26.426174"
       sodipodi:rx="7.9697986"
       sodipodi:ry="6.2919464"
       d="M 231.54362 26.426174 A 7.9697986 6.2919464 0 1 1  215.60402,26.426174 A 7.9697986 6.2919464 0 1 1  231.54362 26.426174 z"
       transform="matrix(0.564623,0,0,0.7152,103.7651,11.10001)" />
    <path
       sodipodi:type="arc"
       style="fill:#afe;fill-opacity:1;stroke:black;stroke-width:1.81708777;stroke-miterlimit:4;stroke-dasharray:none;stroke-opacity:1"
       id="path3955"
       sodipodi:cx="272.651"
       sodipodi:cy="27.2651"
       sodipodi:rx="8.3892622"
       sodipodi:ry="7.9697986"
       d="M 281.04026 27.2651 A 8.3892622 7.9697986 0 1 1  264.26174,27.2651 A 8.3892622 7.9697986 0 1 1  281.04026 27.2651 z"
       transform="matrix(0.536393,0,0,0.564632,133.7519,14.60526)" />
    <path
       sodipodi:type="arc"
       style="fill:#afe;fill-opacity:1;stroke:black;stroke-width:1.57363641;stroke-miterlimit:4;stroke-dasharray:none;stroke-opacity:1"
       id="path3957"
       sodipodi:cx="326.76175"
       sodipodi:cy="25.587248"
       sodipodi:rx="7.9697986"
       sodipodi:ry="6.2919464"
       d="M 334.73155 25.587248 A 7.9697986 6.2919464 0 1 1  318.79195,25.587248 A 7.9697986 6.2919464 0 1 1  334.73155 25.587248 z"
       transform="matrix(0.564629,0,0,0.715201,145.5008,11.69998)" />
    <path
       sodipodi:type="arc"
       style="fill:#afe;fill-opacity:1;stroke:black;stroke-width:1.58188879;stroke-miterlimit:4;stroke-dasharray:none;stroke-opacity:1"
       id="path3959"
       sodipodi:cx="175.33557"
       sodipodi:cy="27.684565"
       sodipodi:rx="7.5503354"
       sodipodi:ry="6.7114096"
       d="M 182.88591 27.684565 A 7.5503354 6.7114096 0 1 1  167.78524,27.684565 A 7.5503354 6.7114096 0 1 1  182.88591 27.684565 z"
       transform="matrix(0.596004,0,0,0.6705,75.49935,11.4375)" />
    <path
       sodipodi:type="arc"
       style="fill:#afa;fill-opacity:1;stroke:black;stroke-width:1.57364655;stroke-miterlimit:4;stroke-dasharray:none;stroke-opacity:1"
       id="path4009"
       sodipodi:cx="223.57382"
       sodipodi:cy="26.426174"
       sodipodi:rx="7.9697986"
       sodipodi:ry="6.2919464"
       d="M 231.54362 26.426174 A 7.9697986 6.2919464 0 1 1  215.60402,26.426174 A 7.9697986 6.2919464 0 1 1  231.54362 26.426174 z"
       transform="matrix(0.564623,0,0,0.7152,128.765,461.1)" />
    <path
       sodipodi:type="arc"
       style="fill:#afa;fill-opacity:1;stroke:black;stroke-width:1.81708777;stroke-miterlimit:4;stroke-dasharray:none;stroke-opacity:1"
       id="path4011"
       sodipodi:cx="272.651"
       sodipodi:cy="27.2651"
       sodipodi:rx="8.3892622"
       sodipodi:ry="7.9697986"
       d="M 281.04026 27.2651 A 8.3892622 7.9697986 0 1 1  264.26174,27.2651 A 8.3892622 7.9697986 0 1 1  281.04026 27.2651 z"
       transform="matrix(0.536393,0,0,0.564632,158.7519,464.6052)" />
    <path
       sodipodi:type="arc"
       style="fill:#afa;fill-opacity:1;stroke:black;stroke-width:1.58188879;stroke-miterlimit:4;stroke-dasharray:none;stroke-opacity:1"
       id="path4015"
       sodipodi:cx="175.33557"
       sodipodi:cy="27.684565"
       sodipodi:rx="7.5503354"
       sodipodi:ry="6.7114096"
       d="M 182.88591 27.684565 A 7.5503354 6.7114096 0 1 1  167.78524,27.684565 A 7.5503354 6.7114096 0 1 1  182.88591 27.684565 z"
       transform="matrix(0.596004,0,0,0.6705,100.4993,461.4375)" />
    <path
       sodipodi:type="arc"
       style="fill:#eaf;fill-opacity:1;stroke:black;stroke-width:1.57364655;stroke-miterlimit:4;stroke-dasharray:none;stroke-opacity:1"
       id="path4017"
       sodipodi:cx="223.57382"
       sodipodi:cy="26.426174"
       sodipodi:rx="7.9697986"
       sodipodi:ry="6.2919464"
       d="M 231.54362 26.426174 A 7.9697986 6.2919464 0 1 1  215.60402,26.426174 A 7.9697986 6.2919464 0 1 1  231.54362 26.426174 z"
       transform="matrix(0.564623,0,0,0.7152,-96.235,236.1)" />
    <path
       sodipodi:type="arc"
       style="fill:#eaf;fill-opacity:1;stroke:black;stroke-width:1.81708777;stroke-miterlimit:4;stroke-dasharray:none;stroke-opacity:1"
       id="path4019"
       sodipodi:cx="272.651"
       sodipodi:cy="27.2651"
       sodipodi:rx="8.3892622"
       sodipodi:ry="7.9697986"
       d="M 281.04026 27.2651 A 8.3892622 7.9697986 0 1 1  264.26174,27.2651 A 8.3892622 7.9697986 0 1 1  281.04026 27.2651 z"
       transform="matrix(0.536393,0,0,0.564632,-116.248,289.6053)" />
    <path
       sodipodi:type="arc"
       style="fill:#eaf;fill-opacity:1;stroke:black;stroke-width:1.58188879;stroke-miterlimit:4;stroke-dasharray:none;stroke-opacity:1"
       id="path4023"
       sodipodi:cx="175.33557"
       sodipodi:cy="27.684565"
       sodipodi:rx="7.5503354"
       sodipodi:ry="6.7114096"
       d="M 182.88591 27.684565 A 7.5503354 6.7114096 0 1 1  167.78524,27.684565 A 7.5503354 6.7114096 0 1 1  182.88591 27.684565 z"
       transform="matrix(0.596004,0,0,0.6705,-74.50073,186.4375)" />
    <path
       sodipodi:type="arc"
       style="fill:#fea;fill-opacity:1;stroke:black;stroke-width:1.57364655;stroke-miterlimit:4;stroke-dasharray:none;stroke-opacity:1"
       id="path4025"
       sodipodi:cx="223.57382"
       sodipodi:cy="26.426174"
       sodipodi:rx="7.9697986"
       sodipodi:ry="6.2919464"
       d="M 231.54362 26.426174 A 7.9697986 6.2919464 0 1 1  215.60402,26.426174 A 7.9697986 6.2919464 0 1 1  231.54362 26.426174 z"
       transform="matrix(0.564623,0,0,0.7152,353.765,236.1)" />
    <path
       sodipodi:type="arc"
       style="fill:#fea;fill-opacity:1;stroke:black;stroke-width:1.81708777;stroke-miterlimit:4;stroke-dasharray:none;stroke-opacity:1"
       id="path4027"
       sodipodi:cx="272.651"
       sodipodi:cy="27.2651"
       sodipodi:rx="8.3892622"
       sodipodi:ry="7.9697986"
       d="M 281.04026 27.2651 A 8.3892622 7.9697986 0 1 1  264.26174,27.2651 A 8.3892622 7.9697986 0 1 1  281.04026 27.2651 z"
       transform="matrix(0.536393,0,0,0.564632,333.7519,189.6052)" />
    <path
       sodipodi:type="arc"
       style="fill:#fea;fill-opacity:1;stroke:black;stroke-width:1.58188879;stroke-miterlimit:4;stroke-dasharray:none;stroke-opacity:1"
       id="path4031"
       sodipodi:cx="175.33557"
       sodipodi:cy="27.684565"
       sodipodi:rx="7.5503354"
       sodipodi:ry="6.7114096"
       d="M 182.88591 27.684565 A 7.5503354 6.7114096 0 1 1  167.78524,27.684565 A 7.5503354 6.7114096 0 1 1  182.88591 27.684565 z"
       transform="matrix(0.596004,0,0,0.6705,375.4993,286.4375)" />
  </g>
</svg>
