<?xml version="1.0" encoding="UTF-8" standalone="no"?>
<svg
   xmlns:dc="http://purl.org/dc/elements/1.1/"
   xmlns:cc="http://creativecommons.org/ns#"
   xmlns:rdf="http://www.w3.org/1999/02/22-rdf-syntax-ns#"
   xmlns:svg="http://www.w3.org/2000/svg"
   xmlns="http://www.w3.org/2000/svg"
   xmlns:sodipodi="http://sodipodi.sourceforge.net/DTD/sodipodi-0.dtd"
   xmlns:inkscape="http://www.inkscape.org/namespaces/inkscape"
   inkscape:version="1.0 (4035a4fb49, 2020-05-01)"
   sodipodi:docname="Banach_non_fixed_graph.svg"
   id="svg771"
   viewBox="0 0 1157 598"
   height="32.00308704738161cm"
   width="61.8690731233187cm"
   version="1.1">
  <metadata
     id="metadata777">
    <rdf:RDF>
      <cc:Work
         rdf:about="">
        <dc:format>image/svg+xml</dc:format>
        <dc:type
           rdf:resource="http://purl.org/dc/dcmitype/StillImage" />
      </cc:Work>
    </rdf:RDF>
  </metadata>
  <defs
     id="defs775">
    <clipPath
       id="clipPath1606"
       clipPathUnits="userSpaceOnUse">
      <rect
         y="118.40067"
         x="217.06235"
         height="450.8952"
         width="481.80209"
         id="rect1608"
         style="opacity:1;fill:none;fill-opacity:0.992565;stroke:#000000;stroke-width:0.679299;stroke-linecap:round;stroke-linejoin:miter;stroke-miterlimit:4;stroke-dasharray:none;stroke-dashoffset:0;stroke-opacity:1;paint-order:normal" />
    </clipPath>
  </defs>
  <sodipodi:namedview
     inkscape:current-layer="svg771"
     inkscape:window-maximized="1"
     inkscape:window-y="0"
     inkscape:window-x="0"
     inkscape:cy="695.48576"
     inkscape:cx="1192.5983"
     inkscape:zoom="0.32551675"
     showgrid="false"
     id="namedview773"
     inkscape:window-height="744"
     inkscape:window-width="1366"
     inkscape:pageshadow="2"
     inkscape:pageopacity="0"
     guidetolerance="10"
     gridtolerance="10"
     objecttolerance="10"
     borderopacity="1"
     bordercolor="#666666"
     pagecolor="#ffffff" />
  <title
     id="title2" />
  <g
     clip-path="url(#clipPath1606)"
     id="g769"
     stroke-linecap="square"
     stroke-miterlimit="10.000"
     stroke-width="1.0000"
     stroke-dasharray="none"
     stroke-dashoffset="0.0000"
     stroke-linejoin="miter">
    <clipPath
       id="clipb27db22b-0df1-423b-85f9-047d5b8ce9eb">
      <path
         id="path4"
         d="M 0.0000 0.0000 L 0.0000 599.00 L 1158.0 599.00 L 1158.0 0.0000 z" />
    </clipPath>
    <g
       id="g11"
       clip-path="url(#clip1)">
      <g
         id="g9"
         stroke="#000000"
         stroke-opacity="1.0000"
         fill="none"
         stroke-linecap="butt">
        <path
           id="path7"
           d="M 450.97 2.0000 L 450.97 599.00" />
      </g>
      <!-- drawing style -->
    </g>
    <!-- clip1 -->
    <clipPath
       id="clip22ade82c-15b3-4620-ae53-804bd73497c4">
      <path
         id="path13"
         d="M 0.0000 0.0000 L 0.0000 599.00 L 1158.0 599.00 L 1158.0 0.0000 z" />
    </clipPath>
    <g
       id="g20"
       clip-path="url(#clip2)">
      <g
         id="g18"
         stroke="#000000"
         stroke-opacity="1.0000"
         fill="none"
         stroke-linecap="butt">
        <path
           id="path16"
           d="M 450.97 1.0000 L 447.97 4.0000" />
      </g>
      <!-- drawing style -->
    </g>
    <!-- clip2 -->
    <clipPath
       id="clipda348273-a3fc-4e78-9670-8274db860f90">
      <path
         id="path22"
         d="M 0.0000 0.0000 L 0.0000 599.00 L 1158.0 599.00 L 1158.0 0.0000 z" />
    </clipPath>
    <g
       id="g29"
       clip-path="url(#clip3)">
      <g
         id="g27"
         stroke="#000000"
         stroke-opacity="1.0000"
         fill="none"
         stroke-linecap="butt">
        <path
           id="path25"
           d="M 450.97 1.0000 L 453.97 4.0000" />
      </g>
      <!-- drawing style -->
    </g>
    <!-- clip3 -->
    <clipPath
       id="clip8850e919-3e20-4ef8-80b6-98fc6612ff2b">
      <path
         id="path31"
         d="M 0.0000 0.0000 L 0.0000 599.00 L 1158.0 599.00 L 1158.0 0.0000 z" />
    </clipPath>
    <g
       id="g38"
       clip-path="url(#clip4)">
      <g
         id="g36"
         stroke="#000000"
         stroke-opacity="1.0000"
         fill="none"
         stroke-linecap="butt">
        <path
           id="path34"
           d="M 0.0000 512.71 L 1156.0 512.71" />
      </g>
      <!-- drawing style -->
    </g>
    <!-- clip4 -->
    <clipPath
       id="clipd7d59075-a235-4000-a87f-20df01b67a7d">
      <path
         id="path40"
         d="M 0.0000 0.0000 L 0.0000 599.00 L 1158.0 599.00 L 1158.0 0.0000 z" />
    </clipPath>
    <g
       id="g47"
       clip-path="url(#clip5)">
      <g
         id="g45"
         stroke="#000000"
         stroke-opacity="1.0000"
         fill="none"
         stroke-linecap="butt">
        <path
           id="path43"
           d="M 1157.0 512.71 L 1154.0 509.71" />
      </g>
      <!-- drawing style -->
    </g>
    <!-- clip5 -->
    <clipPath
       id="clip50222f10-94dd-4158-940c-a7ad49ec8d59">
      <path
         id="path49"
         d="M 0.0000 0.0000 L 0.0000 599.00 L 1158.0 599.00 L 1158.0 0.0000 z" />
    </clipPath>
    <g
       id="g56"
       clip-path="url(#clip6)">
      <g
         id="g54"
         stroke="#000000"
         stroke-opacity="1.0000"
         fill="none"
         stroke-linecap="butt">
        <path
           id="path52"
           d="M 1157.0 512.71 L 1154.0 515.71" />
      </g>
      <!-- drawing style -->
    </g>
    <!-- clip6 -->
    <clipPath
       id="clipe1cd29cd-2a1d-4ad6-bce3-6e2d75c7cfb4">
      <path
         id="path58"
         d="M 0.0000 0.0000 L 0.0000 599.00 L 1158.0 599.00 L 1158.0 0.0000 z" />
    </clipPath>
    <g
       id="g65"
       clip-path="url(#clip7)">
      <g
         id="g63"
         fill="#000000"
         stroke="none"
         fill-rule="nonzero"
         fill-opacity="1.0000">
        <path
           id="path61"
           d="M 72.000 522.91 L 77.000 522.91 L 77.000 523.61 L 72.000 523.61 L 72.000 522.91 z M 78.922 525.17 L 82.359 525.17 L 82.359 526.00 L 77.734 526.00 L 77.734 525.17 Q 78.297 524.59 79.266 523.61 Q 80.234 522.62 80.484 522.34 Q 80.953 521.81 81.141 521.45 Q 81.328 521.08 81.328 520.72 Q 81.328 520.14 80.922 519.78 Q 80.516 519.41 79.859 519.41 Q 79.391 519.41 78.875 519.58 Q 78.375 519.73 77.781 520.06 L 77.781 519.06 Q 78.375 518.83 78.891 518.70 Q 79.406 518.58 79.844 518.58 Q 80.969 518.58 81.641 519.14 Q 82.328 519.70 82.328 520.66 Q 82.328 521.11 82.156 521.52 Q 81.984 521.91 81.547 522.45 Q 81.422 522.59 80.766 523.28 Q 80.109 523.95 78.922 525.17 z" />
      </g>
      <!-- drawing style -->
    </g>
    <!-- clip7 -->
    <clipPath
       id="clipc64dabb7-b983-4a0d-99af-179ae858fbaf">
      <path
         id="path67"
         d="M 0.0000 0.0000 L 0.0000 599.00 L 1158.0 599.00 L 1158.0 0.0000 z" />
    </clipPath>
    <g
       id="g74"
       clip-path="url(#clip8)">
      <g
         id="g72"
         stroke="#000000"
         stroke-opacity="1.0000"
         fill="none"
         stroke-linecap="butt">
        <path
           id="path70"
           d="M 76.630 512.71 L 76.630 515.71" />
      </g>
      <!-- drawing style -->
    </g>
    <!-- clip8 -->
    <clipPath
       id="clipb512beb2-bffd-4106-ae0e-69bd3d4341d2">
      <path
         id="path76"
         d="M 0.0000 0.0000 L 0.0000 599.00 L 1158.0 599.00 L 1158.0 0.0000 z" />
    </clipPath>
    <g
       id="g83"
       clip-path="url(#clip9)">
      <g
         id="g81"
         fill="#000000"
         stroke="none"
         fill-rule="nonzero"
         fill-opacity="1.0000">
        <path
           id="path79"
           d="M 161.00 522.91 L 166.00 522.91 L 166.00 523.61 L 161.00 523.61 L 161.00 522.91 z M 167.23 525.17 L 168.86 525.17 L 168.86 519.61 L 167.09 519.95 L 167.09 519.06 L 168.84 518.70 L 169.83 518.70 L 169.83 525.17 L 171.44 525.17 L 171.44 526.00 L 167.23 526.00 L 167.23 525.17 z M 173.42 524.77 L 174.46 524.77 L 174.46 526.00 L 173.42 526.00 L 173.42 524.77 z M 176.62 518.70 L 180.49 518.70 L 180.49 519.55 L 177.53 519.55 L 177.53 521.33 Q 177.74 521.25 177.95 521.22 Q 178.17 521.19 178.38 521.19 Q 179.60 521.19 180.31 521.86 Q 181.03 522.52 181.03 523.66 Q 181.03 524.84 180.29 525.50 Q 179.57 526.14 178.23 526.14 Q 177.78 526.14 177.29 526.06 Q 176.82 525.98 176.31 525.83 L 176.31 524.84 Q 176.76 525.08 177.23 525.20 Q 177.70 525.31 178.21 525.31 Q 179.06 525.31 179.54 524.88 Q 180.04 524.42 180.04 523.66 Q 180.04 522.91 179.54 522.47 Q 179.06 522.02 178.21 522.02 Q 177.82 522.02 177.42 522.11 Q 177.03 522.19 176.62 522.38 L 176.62 518.70 z" />
      </g>
      <!-- drawing style -->
    </g>
    <!-- clip9 -->
    <clipPath
       id="clip423ed1b5-6a4b-4bb5-8d3b-542831760b4b">
      <path
         id="path85"
         d="M 0.0000 0.0000 L 0.0000 599.00 L 1158.0 599.00 L 1158.0 0.0000 z" />
    </clipPath>
    <g
       id="g92"
       clip-path="url(#clip10)">
      <g
         id="g90"
         stroke="#000000"
         stroke-opacity="1.0000"
         fill="none"
         stroke-linecap="butt">
        <path
           id="path88"
           d="M 170.21 512.71 L 170.21 515.71" />
      </g>
      <!-- drawing style -->
    </g>
    <!-- clip10 -->
    <clipPath
       id="clipadeae07d-ca04-4049-8798-9cbad4cc1d83">
      <path
         id="path94"
         d="M 0.0000 0.0000 L 0.0000 599.00 L 1158.0 599.00 L 1158.0 0.0000 z" />
    </clipPath>
    <g
       id="g101"
       clip-path="url(#clip11)">
      <g
         id="g99"
         fill="#000000"
         stroke="none"
         fill-rule="nonzero"
         fill-opacity="1.0000">
        <path
           id="path97"
           d="M 259.00 522.91 L 264.00 522.91 L 264.00 523.61 L 259.00 523.61 L 259.00 522.91 z M 265.23 525.17 L 266.86 525.17 L 266.86 519.61 L 265.09 519.95 L 265.09 519.06 L 266.84 518.70 L 267.83 518.70 L 267.83 525.17 L 269.44 525.17 L 269.44 526.00 L 265.23 526.00 L 265.23 525.17 z" />
      </g>
      <!-- drawing style -->
    </g>
    <!-- clip11 -->
    <clipPath
       id="clip65b13716-2115-4b89-bfa6-861ae6198164">
      <path
         id="path103"
         d="M 0.0000 0.0000 L 0.0000 599.00 L 1158.0 599.00 L 1158.0 0.0000 z" />
    </clipPath>
    <g
       id="g110"
       clip-path="url(#clip12)">
      <g
         id="g108"
         stroke="#000000"
         stroke-opacity="1.0000"
         fill="none"
         stroke-linecap="butt">
        <path
           id="path106"
           d="M 263.80 512.71 L 263.80 515.71" />
      </g>
      <!-- drawing style -->
    </g>
    <!-- clip12 -->
    <clipPath
       id="clip018b8854-f89a-4de5-a6b6-dea1649cf9ea">
      <path
         id="path112"
         d="M 0.0000 0.0000 L 0.0000 599.00 L 1158.0 599.00 L 1158.0 0.0000 z" />
    </clipPath>
    <g
       id="g119"
       clip-path="url(#clip13)">
      <g
         id="g117"
         fill="#000000"
         stroke="none"
         fill-rule="nonzero"
         fill-opacity="1.0000">
        <path
           id="path115"
           d="M 348.00 522.91 L 353.00 522.91 L 353.00 523.61 L 348.00 523.61 L 348.00 522.91 z M 356.17 519.36 Q 355.42 519.36 355.03 520.11 Q 354.66 520.86 354.66 522.36 Q 354.66 523.86 355.03 524.61 Q 355.42 525.36 356.17 525.36 Q 356.95 525.36 357.33 524.61 Q 357.72 523.86 357.72 522.36 Q 357.72 520.86 357.33 520.11 Q 356.95 519.36 356.17 519.36 z M 356.17 518.58 Q 357.41 518.58 358.05 519.55 Q 358.70 520.52 358.70 522.36 Q 358.70 524.20 358.05 525.17 Q 357.41 526.14 356.17 526.14 Q 354.95 526.14 354.30 525.17 Q 353.66 524.20 353.66 522.36 Q 353.66 520.52 354.30 519.55 Q 354.95 518.58 356.17 518.58 z M 360.42 524.77 L 361.46 524.77 L 361.46 526.00 L 360.42 526.00 L 360.42 524.77 z M 363.62 518.70 L 367.49 518.70 L 367.49 519.55 L 364.53 519.55 L 364.53 521.33 Q 364.74 521.25 364.95 521.22 Q 365.17 521.19 365.38 521.19 Q 366.60 521.19 367.31 521.86 Q 368.03 522.52 368.03 523.66 Q 368.03 524.84 367.29 525.50 Q 366.57 526.14 365.23 526.14 Q 364.78 526.14 364.29 526.06 Q 363.82 525.98 363.31 525.83 L 363.31 524.84 Q 363.76 525.08 364.23 525.20 Q 364.70 525.31 365.21 525.31 Q 366.06 525.31 366.54 524.88 Q 367.04 524.42 367.04 523.66 Q 367.04 522.91 366.54 522.47 Q 366.06 522.02 365.21 522.02 Q 364.82 522.02 364.42 522.11 Q 364.03 522.19 363.62 522.38 L 363.62 518.70 z" />
      </g>
      <!-- drawing style -->
    </g>
    <!-- clip13 -->
    <clipPath
       id="clip42791570-be0b-431c-a4d9-69a8bb1b31c2">
      <path
         id="path121"
         d="M 0.0000 0.0000 L 0.0000 599.00 L 1158.0 599.00 L 1158.0 0.0000 z" />
    </clipPath>
    <g
       id="g128"
       clip-path="url(#clip14)">
      <g
         id="g126"
         stroke="#000000"
         stroke-opacity="1.0000"
         fill="none"
         stroke-linecap="butt">
        <path
           id="path124"
           d="M 357.38 512.71 L 357.38 515.71" />
      </g>
      <!-- drawing style -->
    </g>
    <!-- clip14 -->
    <clipPath
       id="clipee1519f4-cfe4-42c5-b353-b4fb5b33f039">
      <path
         id="path130"
         d="M 0.0000 0.0000 L 0.0000 599.00 L 1158.0 599.00 L 1158.0 0.0000 z" />
    </clipPath>
    <g
       id="g137"
       clip-path="url(#clip15)">
      <g
         id="g135"
         stroke="#000000"
         stroke-opacity="1.0000"
         fill="none"
         stroke-linecap="butt">
        <path
           id="path133"
           d="M 450.97 512.71 L 450.97 515.71" />
      </g>
      <!-- drawing style -->
    </g>
    <!-- clip15 -->
    <clipPath
       id="clip2472cd46-6edb-4d93-8ffc-36e3751a7d74">
      <path
         id="path139"
         d="M 0.0000 0.0000 L 0.0000 599.00 L 1158.0 599.00 L 1158.0 0.0000 z" />
    </clipPath>
    <g
       id="g146"
       clip-path="url(#clip16)">
      <g
         id="g144"
         fill="#000000"
         stroke="none"
         fill-rule="nonzero"
         fill-opacity="1.0000">
        <path
           id="path142"
           d="M 541.17 519.36 Q 540.42 519.36 540.03 520.11 Q 539.66 520.86 539.66 522.36 Q 539.66 523.86 540.03 524.61 Q 540.42 525.36 541.17 525.36 Q 541.95 525.36 542.33 524.61 Q 542.72 523.86 542.72 522.36 Q 542.72 520.86 542.33 520.11 Q 541.95 519.36 541.17 519.36 z M 541.17 518.58 Q 542.41 518.58 543.05 519.55 Q 543.70 520.52 543.70 522.36 Q 543.70 524.20 543.05 525.17 Q 542.41 526.14 541.17 526.14 Q 539.95 526.14 539.30 525.17 Q 538.66 524.20 538.66 522.36 Q 538.66 520.52 539.30 519.55 Q 539.95 518.58 541.17 518.58 z M 545.42 524.77 L 546.46 524.77 L 546.46 526.00 L 545.42 526.00 L 545.42 524.77 z M 548.62 518.70 L 552.49 518.70 L 552.49 519.55 L 549.53 519.55 L 549.53 521.33 Q 549.74 521.25 549.95 521.22 Q 550.17 521.19 550.38 521.19 Q 551.60 521.19 552.31 521.86 Q 553.03 522.52 553.03 523.66 Q 553.03 524.84 552.29 525.50 Q 551.57 526.14 550.23 526.14 Q 549.78 526.14 549.29 526.06 Q 548.82 525.98 548.31 525.83 L 548.31 524.84 Q 548.76 525.08 549.23 525.20 Q 549.70 525.31 550.21 525.31 Q 551.06 525.31 551.54 524.88 Q 552.04 524.42 552.04 523.66 Q 552.04 522.91 551.54 522.47 Q 551.06 522.02 550.21 522.02 Q 549.82 522.02 549.42 522.11 Q 549.03 522.19 548.62 522.38 L 548.62 518.70 z" />
      </g>
      <!-- drawing style -->
    </g>
    <!-- clip16 -->
    <clipPath
       id="clip458a885f-4d3a-4098-8c36-f0ff379c5cf0">
      <path
         id="path148"
         d="M 0.0000 0.0000 L 0.0000 599.00 L 1158.0 599.00 L 1158.0 0.0000 z" />
    </clipPath>
    <g
       id="g155"
       clip-path="url(#clip17)">
      <g
         id="g153"
         stroke="#000000"
         stroke-opacity="1.0000"
         fill="none"
         stroke-linecap="butt">
        <path
           id="path151"
           d="M 544.55 512.71 L 544.55 515.71" />
      </g>
      <!-- drawing style -->
    </g>
    <!-- clip17 -->
    <clipPath
       id="clip2381dd84-8359-416f-9572-e6116afc9559">
      <path
         id="path157"
         d="M 0.0000 0.0000 L 0.0000 599.00 L 1158.0 599.00 L 1158.0 0.0000 z" />
    </clipPath>
    <g
       id="g164"
       clip-path="url(#clip18)">
      <g
         id="g162"
         fill="#000000"
         stroke="none"
         fill-rule="nonzero"
         fill-opacity="1.0000">
        <path
           id="path160"
           d="M 637.23 525.17 L 638.86 525.17 L 638.86 519.61 L 637.09 519.95 L 637.09 519.06 L 638.84 518.70 L 639.83 518.70 L 639.83 525.17 L 641.44 525.17 L 641.44 526.00 L 637.23 526.00 L 637.23 525.17 z" />
      </g>
      <!-- drawing style -->
    </g>
    <!-- clip18 -->
    <clipPath
       id="clip2cc627ef-7371-4dea-bec1-bfa19771c252">
      <path
         id="path166"
         d="M 0.0000 0.0000 L 0.0000 599.00 L 1158.0 599.00 L 1158.0 0.0000 z" />
    </clipPath>
    <g
       id="g173"
       clip-path="url(#clip19)">
      <g
         id="g171"
         stroke="#000000"
         stroke-opacity="1.0000"
         fill="none"
         stroke-linecap="butt">
        <path
           id="path169"
           d="M 638.14 512.71 L 638.14 515.71" />
      </g>
      <!-- drawing style -->
    </g>
    <!-- clip19 -->
    <clipPath
       id="clipb541066e-9573-49e2-bf1e-c0af802a0b44">
      <path
         id="path175"
         d="M 0.0000 0.0000 L 0.0000 599.00 L 1158.0 599.00 L 1158.0 0.0000 z" />
    </clipPath>
    <g
       id="g182"
       clip-path="url(#clip20)">
      <g
         id="g180"
         fill="#000000"
         stroke="none"
         fill-rule="nonzero"
         fill-opacity="1.0000">
        <path
           id="path178"
           d="M 726.23 525.17 L 727.86 525.17 L 727.86 519.61 L 726.09 519.95 L 726.09 519.06 L 727.84 518.70 L 728.83 518.70 L 728.83 525.17 L 730.44 525.17 L 730.44 526.00 L 726.23 526.00 L 726.23 525.17 z M 732.42 524.77 L 733.46 524.77 L 733.46 526.00 L 732.42 526.00 L 732.42 524.77 z M 735.62 518.70 L 739.49 518.70 L 739.49 519.55 L 736.53 519.55 L 736.53 521.33 Q 736.74 521.25 736.95 521.22 Q 737.17 521.19 737.38 521.19 Q 738.60 521.19 739.31 521.86 Q 740.03 522.52 740.03 523.66 Q 740.03 524.84 739.29 525.50 Q 738.57 526.14 737.23 526.14 Q 736.78 526.14 736.29 526.06 Q 735.82 525.98 735.31 525.83 L 735.31 524.84 Q 735.76 525.08 736.23 525.20 Q 736.70 525.31 737.21 525.31 Q 738.06 525.31 738.54 524.88 Q 739.04 524.42 739.04 523.66 Q 739.04 522.91 738.54 522.47 Q 738.06 522.02 737.21 522.02 Q 736.82 522.02 736.42 522.11 Q 736.03 522.19 735.62 522.38 L 735.62 518.70 z" />
      </g>
      <!-- drawing style -->
    </g>
    <!-- clip20 -->
    <clipPath
       id="clip6492fd9b-fb17-4ad3-85c3-af66ef6103ad">
      <path
         id="path184"
         d="M 0.0000 0.0000 L 0.0000 599.00 L 1158.0 599.00 L 1158.0 0.0000 z" />
    </clipPath>
    <g
       id="g191"
       clip-path="url(#clip21)">
      <g
         id="g189"
         stroke="#000000"
         stroke-opacity="1.0000"
         fill="none"
         stroke-linecap="butt">
        <path
           id="path187"
           d="M 731.72 512.71 L 731.72 515.71" />
      </g>
      <!-- drawing style -->
    </g>
    <!-- clip21 -->
    <clipPath
       id="clipe04cda48-a5cc-4afc-895e-e8b5573371dd">
      <path
         id="path193"
         d="M 0.0000 0.0000 L 0.0000 599.00 L 1158.0 599.00 L 1158.0 0.0000 z" />
    </clipPath>
    <g
       id="g200"
       clip-path="url(#clip22)">
      <g
         id="g198"
         fill="#000000"
         stroke="none"
         fill-rule="nonzero"
         fill-opacity="1.0000">
        <path
           id="path196"
           d="M 824.92 525.17 L 828.36 525.17 L 828.36 526.00 L 823.73 526.00 L 823.73 525.17 Q 824.30 524.59 825.27 523.61 Q 826.23 522.62 826.48 522.34 Q 826.95 521.81 827.14 521.45 Q 827.33 521.08 827.33 520.72 Q 827.33 520.14 826.92 519.78 Q 826.52 519.41 825.86 519.41 Q 825.39 519.41 824.88 519.58 Q 824.38 519.73 823.78 520.06 L 823.78 519.06 Q 824.38 518.83 824.89 518.70 Q 825.41 518.58 825.84 518.58 Q 826.97 518.58 827.64 519.14 Q 828.33 519.70 828.33 520.66 Q 828.33 521.11 828.16 521.52 Q 827.98 521.91 827.55 522.45 Q 827.42 522.59 826.77 523.28 Q 826.11 523.95 824.92 525.17 z" />
      </g>
      <!-- drawing style -->
    </g>
    <!-- clip22 -->
    <clipPath
       id="clipb31394e4-3bec-4899-b284-66ae0b64d5ef">
      <path
         id="path202"
         d="M 0.0000 0.0000 L 0.0000 599.00 L 1158.0 599.00 L 1158.0 0.0000 z" />
    </clipPath>
    <g
       id="g209"
       clip-path="url(#clip23)">
      <g
         id="g207"
         stroke="#000000"
         stroke-opacity="1.0000"
         fill="none"
         stroke-linecap="butt">
        <path
           id="path205"
           d="M 825.31 512.71 L 825.31 515.71" />
      </g>
      <!-- drawing style -->
    </g>
    <!-- clip23 -->
    <clipPath
       id="clipdce8a90a-a539-4618-b4dc-10c7ca48af3c">
      <path
         id="path211"
         d="M 0.0000 0.0000 L 0.0000 599.00 L 1158.0 599.00 L 1158.0 0.0000 z" />
    </clipPath>
    <g
       id="g218"
       clip-path="url(#clip24)">
      <g
         id="g216"
         fill="#000000"
         stroke="none"
         fill-rule="nonzero"
         fill-opacity="1.0000">
        <path
           id="path214"
           d="M 913.92 525.17 L 917.36 525.17 L 917.36 526.00 L 912.73 526.00 L 912.73 525.17 Q 913.30 524.59 914.27 523.61 Q 915.23 522.62 915.48 522.34 Q 915.95 521.81 916.14 521.45 Q 916.33 521.08 916.33 520.72 Q 916.33 520.14 915.92 519.78 Q 915.52 519.41 914.86 519.41 Q 914.39 519.41 913.88 519.58 Q 913.38 519.73 912.78 520.06 L 912.78 519.06 Q 913.38 518.83 913.89 518.70 Q 914.41 518.58 914.84 518.58 Q 915.97 518.58 916.64 519.14 Q 917.33 519.70 917.33 520.66 Q 917.33 521.11 917.16 521.52 Q 916.98 521.91 916.55 522.45 Q 916.42 522.59 915.77 523.28 Q 915.11 523.95 913.92 525.17 z M 919.42 524.77 L 920.46 524.77 L 920.46 526.00 L 919.42 526.00 L 919.42 524.77 z M 922.62 518.70 L 926.49 518.70 L 926.49 519.55 L 923.53 519.55 L 923.53 521.33 Q 923.74 521.25 923.95 521.22 Q 924.17 521.19 924.38 521.19 Q 925.60 521.19 926.31 521.86 Q 927.03 522.52 927.03 523.66 Q 927.03 524.84 926.29 525.50 Q 925.57 526.14 924.23 526.14 Q 923.78 526.14 923.29 526.06 Q 922.82 525.98 922.31 525.83 L 922.31 524.84 Q 922.76 525.08 923.23 525.20 Q 923.70 525.31 924.21 525.31 Q 925.06 525.31 925.54 524.88 Q 926.04 524.42 926.04 523.66 Q 926.04 522.91 925.54 522.47 Q 925.06 522.02 924.21 522.02 Q 923.82 522.02 923.42 522.11 Q 923.03 522.19 922.62 522.38 L 922.62 518.70 z" />
      </g>
      <!-- drawing style -->
    </g>
    <!-- clip24 -->
    <clipPath
       id="clip699887ca-030f-4ffd-81bf-dbc792cfb890">
      <path
         id="path220"
         d="M 0.0000 0.0000 L 0.0000 599.00 L 1158.0 599.00 L 1158.0 0.0000 z" />
    </clipPath>
    <g
       id="g227"
       clip-path="url(#clip25)">
      <g
         id="g225"
         stroke="#000000"
         stroke-opacity="1.0000"
         fill="none"
         stroke-linecap="butt">
        <path
           id="path223"
           d="M 918.89 512.71 L 918.89 515.71" />
      </g>
      <!-- drawing style -->
    </g>
    <!-- clip25 -->
    <clipPath
       id="clip68f2c1ec-af37-422a-bd16-e3b0c7689020">
      <path
         id="path229"
         d="M 0.0000 0.0000 L 0.0000 599.00 L 1158.0 599.00 L 1158.0 0.0000 z" />
    </clipPath>
    <g
       id="g236"
       clip-path="url(#clip26)">
      <g
         id="g234"
         fill="#000000"
         stroke="none"
         fill-rule="nonzero"
         fill-opacity="1.0000">
        <path
           id="path232"
           d="M 1014.1 522.06 Q 1014.8 522.22 1015.2 522.70 Q 1015.6 523.17 1015.6 523.88 Q 1015.6 524.95 1014.8 525.55 Q 1014.1 526.14 1012.7 526.14 Q 1012.2 526.14 1011.8 526.05 Q 1011.3 525.95 1010.8 525.78 L 1010.8 524.83 Q 1011.2 525.06 1011.7 525.19 Q 1012.2 525.31 1012.7 525.31 Q 1013.6 525.31 1014.1 524.95 Q 1014.6 524.58 1014.6 523.88 Q 1014.6 523.23 1014.1 522.88 Q 1013.7 522.52 1012.9 522.52 L 1012.0 522.52 L 1012.0 521.70 L 1012.9 521.70 Q 1013.6 521.70 1014.0 521.41 Q 1014.4 521.11 1014.4 520.56 Q 1014.4 520.02 1014.0 519.72 Q 1013.6 519.41 1012.9 519.41 Q 1012.5 519.41 1012.0 519.50 Q 1011.5 519.58 1011.0 519.77 L 1011.0 518.89 Q 1011.5 518.73 1012.0 518.66 Q 1012.5 518.58 1013.0 518.58 Q 1014.1 518.58 1014.7 519.09 Q 1015.4 519.59 1015.4 520.47 Q 1015.4 521.08 1015.0 521.50 Q 1014.7 521.91 1014.1 522.06 z" />
      </g>
      <!-- drawing style -->
    </g>
    <!-- clip26 -->
    <clipPath
       id="clip281d1452-6a82-43c3-896c-c9cb100b0200">
      <path
         id="path238"
         d="M 0.0000 0.0000 L 0.0000 599.00 L 1158.0 599.00 L 1158.0 0.0000 z" />
    </clipPath>
    <g
       id="g245"
       clip-path="url(#clip27)">
      <g
         id="g243"
         stroke="#000000"
         stroke-opacity="1.0000"
         fill="none"
         stroke-linecap="butt">
        <path
           id="path241"
           d="M 1012.5 512.71 L 1012.5 515.71" />
      </g>
      <!-- drawing style -->
    </g>
    <!-- clip27 -->
    <clipPath
       id="clipf7be799c-197b-4d21-842f-e8b63dd8d18a">
      <path
         id="path247"
         d="M 0.0000 0.0000 L 0.0000 599.00 L 1158.0 599.00 L 1158.0 0.0000 z" />
    </clipPath>
    <g
       id="g254"
       clip-path="url(#clip28)">
      <g
         id="g252"
         fill="#000000"
         stroke="none"
         fill-rule="nonzero"
         fill-opacity="1.0000">
        <path
           id="path250"
           d="M 1103.1 522.06 Q 1103.8 522.22 1104.2 522.70 Q 1104.6 523.17 1104.6 523.88 Q 1104.6 524.95 1103.8 525.55 Q 1103.1 526.14 1101.7 526.14 Q 1101.2 526.14 1100.8 526.05 Q 1100.3 525.95 1099.8 525.78 L 1099.8 524.83 Q 1100.2 525.06 1100.7 525.19 Q 1101.2 525.31 1101.7 525.31 Q 1102.6 525.31 1103.1 524.95 Q 1103.6 524.58 1103.6 523.88 Q 1103.6 523.23 1103.1 522.88 Q 1102.7 522.52 1101.9 522.52 L 1101.0 522.52 L 1101.0 521.70 L 1101.9 521.70 Q 1102.6 521.70 1103.0 521.41 Q 1103.4 521.11 1103.4 520.56 Q 1103.4 520.02 1103.0 519.72 Q 1102.6 519.41 1101.9 519.41 Q 1101.5 519.41 1101.0 519.50 Q 1100.5 519.58 1100.0 519.77 L 1100.0 518.89 Q 1100.5 518.73 1101.0 518.66 Q 1101.5 518.58 1102.0 518.58 Q 1103.1 518.58 1103.7 519.09 Q 1104.4 519.59 1104.4 520.47 Q 1104.4 521.08 1104.0 521.50 Q 1103.7 521.91 1103.1 522.06 z M 1106.4 524.77 L 1107.5 524.77 L 1107.5 526.00 L 1106.4 526.00 L 1106.4 524.77 z M 1109.6 518.70 L 1113.5 518.70 L 1113.5 519.55 L 1110.5 519.55 L 1110.5 521.33 Q 1110.7 521.25 1110.9 521.22 Q 1111.2 521.19 1111.4 521.19 Q 1112.6 521.19 1113.3 521.86 Q 1114.0 522.52 1114.0 523.66 Q 1114.0 524.84 1113.3 525.50 Q 1112.6 526.14 1111.2 526.14 Q 1110.8 526.14 1110.3 526.06 Q 1109.8 525.98 1109.3 525.83 L 1109.3 524.84 Q 1109.8 525.08 1110.2 525.20 Q 1110.7 525.31 1111.2 525.31 Q 1112.1 525.31 1112.5 524.88 Q 1113.0 524.42 1113.0 523.66 Q 1113.0 522.91 1112.5 522.47 Q 1112.1 522.02 1111.2 522.02 Q 1110.8 522.02 1110.4 522.11 Q 1110.0 522.19 1109.6 522.38 L 1109.6 518.70 z" />
      </g>
      <!-- drawing style -->
    </g>
    <!-- clip28 -->
    <clipPath
       id="clip667a3e26-4e40-4328-b4b4-675b9d9aaee9">
      <path
         id="path256"
         d="M 0.0000 0.0000 L 0.0000 599.00 L 1158.0 599.00 L 1158.0 0.0000 z" />
    </clipPath>
    <g
       id="g263"
       clip-path="url(#clip29)">
      <g
         id="g261"
         stroke="#000000"
         stroke-opacity="1.0000"
         fill="none"
         stroke-linecap="butt">
        <path
           id="path259"
           d="M 1106.1 512.71 L 1106.1 515.71" />
      </g>
      <!-- drawing style -->
    </g>
    <!-- clip29 -->
    <clipPath
       id="clip79fe25f5-eab2-48ca-8451-67a16fdd1d9c">
      <path
         id="path265"
         d="M 0.0000 0.0000 L 0.0000 599.00 L 1158.0 599.00 L 1158.0 0.0000 z" />
    </clipPath>
    <g
       id="g272"
       clip-path="url(#clip30)">
      <g
         id="g270"
         stroke="#000000"
         stroke-opacity="1.0000"
         fill="none"
         stroke-linecap="butt">
        <path
           id="path268"
           d="M 447.97 419.12 L 450.97 419.12" />
      </g>
      <!-- drawing style -->
    </g>
    <!-- clip30 -->
    <clipPath
       id="clip0ef35084-9b91-4771-a74e-0d30b2dc1fce">
      <path
         id="path274"
         d="M 0.0000 0.0000 L 0.0000 599.00 L 1158.0 599.00 L 1158.0 0.0000 z" />
    </clipPath>
    <g
       id="g281"
       clip-path="url(#clip31)">
      <g
         id="g279"
         stroke="#000000"
         stroke-opacity="1.0000"
         fill="none"
         stroke-linecap="butt">
        <path
           id="path277"
           d="M 447.97 325.54 L 450.97 325.54" />
      </g>
      <!-- drawing style -->
    </g>
    <!-- clip31 -->
    <clipPath
       id="clip28c03528-8444-45ee-9f4e-200836512238">
      <path
         id="path283"
         d="M 0.0000 0.0000 L 0.0000 599.00 L 1158.0 599.00 L 1158.0 0.0000 z" />
    </clipPath>
    <g
       id="g290"
       clip-path="url(#clip32)">
      <g
         id="g288"
         stroke="#000000"
         stroke-opacity="1.0000"
         fill="none"
         stroke-linecap="butt">
        <path
           id="path286"
           d="M 447.97 231.95 L 450.97 231.95" />
      </g>
      <!-- drawing style -->
    </g>
    <!-- clip32 -->
    <clipPath
       id="clipde289bf4-b7fb-40db-bbe9-3ecabb64d844">
      <path
         id="path292"
         d="M 0.0000 0.0000 L 0.0000 599.00 L 1158.0 599.00 L 1158.0 0.0000 z" />
    </clipPath>
    <g
       id="g299"
       clip-path="url(#clip33)">
      <g
         id="g297"
         stroke="#000000"
         stroke-opacity="1.0000"
         fill="none"
         stroke-linecap="butt">
        <path
           id="path295"
           d="M 447.97 138.37 L 450.97 138.37" />
      </g>
      <!-- drawing style -->
    </g>
    <!-- clip33 -->
    <clipPath
       id="clipa580bc3e-e245-4ac9-bd2e-dba753a863c9">
      <path
         id="path301"
         d="M 0.0000 0.0000 L 0.0000 599.00 L 1158.0 599.00 L 1158.0 0.0000 z" />
    </clipPath>
    <g
       id="g308"
       clip-path="url(#clip34)">
      <g
         id="g306"
         stroke="#000000"
         stroke-opacity="1.0000"
         fill="none"
         stroke-linecap="butt">
        <path
           id="path304"
           d="M 447.97 44.783 L 450.97 44.783" />
      </g>
      <!-- drawing style -->
    </g>
    <!-- clip34 -->
    <clipPath
       id="clip71001e2a-802b-4536-a5ed-ab5c99199668">
      <path
         id="path310"
         d="M 0.0000 0.0000 L 0.0000 599.00 L 1158.0 599.00 L 1158.0 0.0000 z" />
    </clipPath>
    <g
       id="g317"
       clip-path="url(#clip35)">
      <g
         id="g315"
         fill="#000000"
         stroke="none"
         fill-rule="nonzero"
         fill-opacity="1.0000">
        <path
           id="path313"
           d="M 432.17 416.36 Q 431.42 416.36 431.03 417.11 Q 430.66 417.86 430.66 419.36 Q 430.66 420.86 431.03 421.61 Q 431.42 422.36 432.17 422.36 Q 432.95 422.36 433.33 421.61 Q 433.72 420.86 433.72 419.36 Q 433.72 417.86 433.33 417.11 Q 432.95 416.36 432.17 416.36 z M 432.17 415.58 Q 433.41 415.58 434.05 416.55 Q 434.70 417.52 434.70 419.36 Q 434.70 421.20 434.05 422.17 Q 433.41 423.14 432.17 423.14 Q 430.95 423.14 430.30 422.17 Q 429.66 421.20 429.66 419.36 Q 429.66 417.52 430.30 416.55 Q 430.95 415.58 432.17 415.58 z M 436.42 421.77 L 437.46 421.77 L 437.46 423.00 L 436.42 423.00 L 436.42 421.77 z M 439.62 415.70 L 443.49 415.70 L 443.49 416.55 L 440.53 416.55 L 440.53 418.33 Q 440.74 418.25 440.95 418.22 Q 441.17 418.19 441.38 418.19 Q 442.60 418.19 443.31 418.86 Q 444.03 419.52 444.03 420.66 Q 444.03 421.84 443.29 422.50 Q 442.57 423.14 441.23 423.14 Q 440.78 423.14 440.29 423.06 Q 439.82 422.98 439.31 422.83 L 439.31 421.84 Q 439.76 422.08 440.23 422.20 Q 440.70 422.31 441.21 422.31 Q 442.06 422.31 442.54 421.88 Q 443.04 421.42 443.04 420.66 Q 443.04 419.91 442.54 419.47 Q 442.06 419.02 441.21 419.02 Q 440.82 419.02 440.42 419.11 Q 440.03 419.19 439.62 419.38 L 439.62 415.70 z" />
      </g>
      <!-- drawing style -->
    </g>
    <!-- clip35 -->
    <clipPath
       id="clipf3caafce-8e78-4d81-a2df-176be8a6e18d">
      <path
         id="path319"
         d="M 0.0000 0.0000 L 0.0000 599.00 L 1158.0 599.00 L 1158.0 0.0000 z" />
    </clipPath>
    <g
       id="g326"
       clip-path="url(#clip36)">
      <g
         id="g324"
         fill="#000000"
         stroke="none"
         fill-rule="nonzero"
         fill-opacity="1.0000">
        <path
           id="path322"
           d="M 439.23 328.17 L 440.86 328.17 L 440.86 322.61 L 439.09 322.95 L 439.09 322.06 L 440.84 321.70 L 441.83 321.70 L 441.83 328.17 L 443.44 328.17 L 443.44 329.00 L 439.23 329.00 L 439.23 328.17 z" />
      </g>
      <!-- drawing style -->
    </g>
    <!-- clip36 -->
    <clipPath
       id="clip82ecbb73-2872-4f69-913a-00cb7d679502">
      <path
         id="path328"
         d="M 0.0000 0.0000 L 0.0000 599.00 L 1158.0 599.00 L 1158.0 0.0000 z" />
    </clipPath>
    <g
       id="g335"
       clip-path="url(#clip37)">
      <g
         id="g333"
         fill="#000000"
         stroke="none"
         fill-rule="nonzero"
         fill-opacity="1.0000">
        <path
           id="path331"
           d="M 430.23 234.17 L 431.86 234.17 L 431.86 228.61 L 430.09 228.95 L 430.09 228.06 L 431.84 227.70 L 432.83 227.70 L 432.83 234.17 L 434.44 234.17 L 434.44 235.00 L 430.23 235.00 L 430.23 234.17 z M 436.42 233.77 L 437.46 233.77 L 437.46 235.00 L 436.42 235.00 L 436.42 233.77 z M 439.62 227.70 L 443.49 227.70 L 443.49 228.55 L 440.53 228.55 L 440.53 230.33 Q 440.74 230.25 440.95 230.22 Q 441.17 230.19 441.38 230.19 Q 442.60 230.19 443.31 230.86 Q 444.03 231.52 444.03 232.66 Q 444.03 233.84 443.29 234.50 Q 442.57 235.14 441.23 235.14 Q 440.78 235.14 440.29 235.06 Q 439.82 234.98 439.31 234.83 L 439.31 233.84 Q 439.76 234.08 440.23 234.20 Q 440.70 234.31 441.21 234.31 Q 442.06 234.31 442.54 233.88 Q 443.04 233.42 443.04 232.66 Q 443.04 231.91 442.54 231.47 Q 442.06 231.02 441.21 231.02 Q 440.82 231.02 440.42 231.11 Q 440.03 231.19 439.62 231.38 L 439.62 227.70 z" />
      </g>
      <!-- drawing style -->
    </g>
    <!-- clip37 -->
    <clipPath
       id="clip2575e75f-9227-4e91-a29d-d0b5bc2b2d7e">
      <path
         id="path337"
         d="M 0.0000 0.0000 L 0.0000 599.00 L 1158.0 599.00 L 1158.0 0.0000 z" />
    </clipPath>
    <g
       id="g344"
       clip-path="url(#clip38)">
      <g
         id="g342"
         fill="#000000"
         stroke="none"
         fill-rule="nonzero"
         fill-opacity="1.0000">
        <path
           id="path340"
           d="M 439.92 141.17 L 443.36 141.17 L 443.36 142.00 L 438.73 142.00 L 438.73 141.17 Q 439.30 140.59 440.27 139.61 Q 441.23 138.62 441.48 138.34 Q 441.95 137.81 442.14 137.45 Q 442.33 137.08 442.33 136.72 Q 442.33 136.14 441.92 135.78 Q 441.52 135.41 440.86 135.41 Q 440.39 135.41 439.88 135.58 Q 439.38 135.73 438.78 136.06 L 438.78 135.06 Q 439.38 134.83 439.89 134.70 Q 440.41 134.58 440.84 134.58 Q 441.97 134.58 442.64 135.14 Q 443.33 135.70 443.33 136.66 Q 443.33 137.11 443.16 137.52 Q 442.98 137.91 442.55 138.45 Q 442.42 138.59 441.77 139.28 Q 441.11 139.95 439.92 141.17 z" />
      </g>
      <!-- drawing style -->
    </g>
    <!-- clip38 -->
    <clipPath
       id="clip120fb6bd-c40c-426d-b3ca-45269eba4bff">
      <path
         id="path346"
         d="M 0.0000 0.0000 L 0.0000 599.00 L 1158.0 599.00 L 1158.0 0.0000 z" />
    </clipPath>
    <g
       id="g353"
       clip-path="url(#clip39)">
      <g
         id="g351"
         fill="#000000"
         stroke="none"
         fill-rule="nonzero"
         fill-opacity="1.0000">
        <path
           id="path349"
           d="M 430.92 47.172 L 434.36 47.172 L 434.36 48.000 L 429.73 48.000 L 429.73 47.172 Q 430.30 46.594 431.27 45.609 Q 432.23 44.625 432.48 44.344 Q 432.95 43.812 433.14 43.453 Q 433.33 43.078 433.33 42.719 Q 433.33 42.141 432.92 41.781 Q 432.52 41.406 431.86 41.406 Q 431.39 41.406 430.88 41.578 Q 430.38 41.734 429.78 42.062 L 429.78 41.062 Q 430.38 40.828 430.89 40.703 Q 431.41 40.578 431.84 40.578 Q 432.97 40.578 433.64 41.141 Q 434.33 41.703 434.33 42.656 Q 434.33 43.109 434.16 43.516 Q 433.98 43.906 433.55 44.453 Q 433.42 44.594 432.77 45.281 Q 432.11 45.953 430.92 47.172 z M 436.42 46.766 L 437.46 46.766 L 437.46 48.000 L 436.42 48.000 L 436.42 46.766 z M 439.62 40.703 L 443.49 40.703 L 443.49 41.547 L 440.53 41.547 L 440.53 43.328 Q 440.74 43.250 440.95 43.219 Q 441.17 43.188 441.38 43.188 Q 442.60 43.188 443.31 43.859 Q 444.03 44.516 444.03 45.656 Q 444.03 46.844 443.29 47.500 Q 442.57 48.141 441.23 48.141 Q 440.78 48.141 440.29 48.062 Q 439.82 47.984 439.31 47.828 L 439.31 46.844 Q 439.76 47.078 440.23 47.203 Q 440.70 47.312 441.21 47.312 Q 442.06 47.312 442.54 46.875 Q 443.04 46.422 443.04 45.656 Q 443.04 44.906 442.54 44.469 Q 442.06 44.016 441.21 44.016 Q 440.82 44.016 440.42 44.109 Q 440.03 44.188 439.62 44.375 L 439.62 40.703 z" />
      </g>
      <!-- drawing style -->
    </g>
    <!-- clip39 -->
    <clipPath
       id="clipead1bfba-9e10-4f25-81d8-03c81fe4c299">
      <path
         id="path355"
         d="M 0.0000 0.0000 L 0.0000 599.00 L 1158.0 599.00 L 1158.0 0.0000 z" />
    </clipPath>
    <g
       id="g362"
       clip-path="url(#clip40)">
      <g
         id="g360"
         fill="#000000"
         stroke="none"
         fill-rule="nonzero"
         fill-opacity="1.0000">
        <path
           id="path358"
           d="M 441.17 519.36 Q 440.42 519.36 440.03 520.11 Q 439.66 520.86 439.66 522.36 Q 439.66 523.86 440.03 524.61 Q 440.42 525.36 441.17 525.36 Q 441.95 525.36 442.33 524.61 Q 442.72 523.86 442.72 522.36 Q 442.72 520.86 442.33 520.11 Q 441.95 519.36 441.17 519.36 z M 441.17 518.58 Q 442.41 518.58 443.05 519.55 Q 443.70 520.52 443.70 522.36 Q 443.70 524.20 443.05 525.17 Q 442.41 526.14 441.17 526.14 Q 439.95 526.14 439.30 525.17 Q 438.66 524.20 438.66 522.36 Q 438.66 520.52 439.30 519.55 Q 439.95 518.58 441.17 518.58 z" />
      </g>
      <!-- drawing style -->
    </g>
    <!-- clip40 -->
    <g
       id="misc" />
    <!-- misc -->
    <g
       id="layer0">
      <clipPath
         id="clip0388d458-2823-488d-b097-d03d3788a23a">
        <path
           id="path365"
           d="M 0.0000 0.0000 L 0.0000 599.00 L 1158.0 599.00 L 1158.0 0.0000 z" />
      </clipPath>
      <g
         id="g376"
         clip-path="url(#clip41)">
        <g
           id="g374"
           stroke="#7d7dff"
           stroke-opacity=".69804"
           fill="none"
           stroke-linecap="round"
           stroke-width="4.5000"
           stroke-linejoin="round">
          <path
             id="path368"
             d="M 0.0000 551.02 L 4.5234 548.76 L 9.0469 546.50 L 13.570 544.24 L 18.094 541.97 L 22.617 539.71 L 27.141 537.45 L 31.664 535.19 L 36.188 532.93 L 40.711 530.67 L 45.234 528.40 L 49.758 526.14 L 54.281 523.88 L 58.805 521.62 L 63.328 519.36 L 67.852 517.10 L 72.375 514.83 L 76.898 512.57 L 81.422 510.31 L 85.945 508.05 L 90.469 505.79 L 94.992 503.53 L 99.516 501.26 L 104.04 499.00 L 108.56 496.74 L 113.09 494.48 L 117.61 492.22 L 122.13 489.95 L 126.66 487.69 L 131.18 485.43 L 135.70 483.17 L 140.23 480.91 L 144.75 478.65 L 149.27 476.38 L 153.80 474.12 L 158.32 471.86 L 162.84 469.60 L 167.37 467.34 L 171.89 465.08 L 176.41 462.81 L 180.94 460.55 L 185.46 458.29 L 189.98 456.03 L 194.51 453.77 L 199.03 451.51 L 203.55 449.24 L 208.08 446.98 L 212.60 444.72 L 217.12 442.46 L 221.65 440.20 L 226.17 437.94 L 230.70 435.67 L 235.22 433.41 L 239.74 431.15 L 244.27 428.89 L 248.79 426.63 L 253.31 424.36 L 257.84 422.10 L 262.36 419.84 L 266.88 417.58 L 271.41 415.32 L 275.93 413.06 L 280.45 410.79 L 284.98 408.53 L 289.50 406.27 L 294.02 404.01 L 298.55 401.75 L 303.07 399.49 L 307.59 397.22 L 312.12 394.96 L 316.64 392.70 L 321.16 390.44 L 325.69 388.18 L 330.21 385.92 L 334.73 383.65 L 339.26 381.39 L 343.78 379.13 L 348.30 376.87 L 352.83 374.61 L 357.35 372.35 L 361.88 370.08 L 366.40 367.82 L 370.92 365.56 L 375.45 363.30 L 379.97 361.04 L 384.49 358.78 L 389.02 356.51 L 393.54 354.25 L 398.06 351.99 L 402.59 349.73 L 407.11 347.47 L 411.63 345.20 L 416.16 342.94 L 420.68 340.68 L 425.20 338.42 L 429.73 336.16 L 434.25 333.90 L 438.77 331.63 L 443.30 329.37 L 447.82 327.11 L 452.34 325.53 L 452.91 325.52 L 453.47 325.50 L 454.61 325.47 L 456.87 325.36 L 461.39 324.99 L 465.91 324.43 L 470.44 323.70 L 474.96 322.81 L 479.48 321.77 L 484.01 320.58 L 488.53 319.26 L 493.05 317.81 L 497.58 316.24 L 502.10 314.57 L 506.62 312.78 L 511.15 310.90 L 515.67 308.92 L 520.20 306.85 L 524.72 304.69 L 529.24 302.46 L 533.77 300.14 L 538.29 297.76 L 542.81 295.30 L 547.34 292.78 L 551.86 290.20 L 556.38 287.56 L 560.91 284.86 L 565.43 282.10 L 569.95 279.29 L 574.48 276.44 L 579.00 273.53 L 583.52 270.58 L 588.05 267.59 L 592.57 264.55 L 597.09 261.47 L 601.62 258.36 L 606.14 255.20 L 610.66 252.01 L 615.19 248.79 L 619.71 245.53 L 624.23 242.25 L 628.76 238.93 L 633.28 235.58 L 637.80 232.20 L 642.33 228.80 L 646.85 225.37 L 651.38 221.91 L 655.90 218.43 L 660.42 214.93 L 664.95 211.40 L 669.47 207.85 L 673.99 204.28 L 678.52 200.69 L 683.04 197.07 L 687.56 193.44 L 692.09 189.79 L 696.61 186.12 L 701.13 182.44 L 705.66 178.73 L 710.18 175.01 L 714.70 171.28 L 719.23 167.53 L 723.75 163.76 L 728.27 159.98 L 732.80 156.18 L 737.32 152.37 L 741.84 148.55 L 746.37 144.71 L 750.89 140.86 L 755.41 137.00 L 759.94 133.13 L 764.46 129.24 L 768.98 125.35 L 773.51 121.44 L 778.03 117.52 L 782.55 113.59 L 787.08 109.65 L 791.60 105.70 L 796.12 101.74 L 800.65 97.771 L 805.17 93.793 L 809.70 89.806 L 814.22 85.810 L 818.74 81.805 L 823.27 77.792 L 827.79 73.771 L 832.31 69.742 L 836.84 65.704 L 841.36 61.660 L 845.88 57.608 L 850.41 53.548 L 854.93 49.482 L 859.45 45.409 L 863.98 41.328 L 868.50 37.242 L 873.02 33.148 L 877.55 29.049 L 882.07 24.943 L 886.59 20.831 L 891.12 16.713 L 895.64 12.590 L 900.16 8.4602 L 904.69 4.3253 L 909.21 .18500 L 913.73 -3.9607 L 918.26 -8.1115" />
          <title
             id="title370">Function T</title>
          <desc
             id="desc372">T(x) = If(x &lt; 0, 1 + x / 2, x ≥ 0, x + 1 / (x + 1))</desc>
        </g>
        <!-- drawing style -->
      </g>
      <!-- clip41 -->
      <g
         id="g391"
         transform="matrix(.15000, 0.0000, 0.0000, .15000, 473.00, 376.75)">
        <clipPath
           id="clip1f3c1b72-9b9a-47c2-8d7c-3f30698fa7fa">
          <path
             id="path378"
             d="M -3153.3 -2511.7 L -3153.3 1481.7 L 4566.7 1481.7 L 4566.7 -2511.7 z" />
        </clipPath>
        <g
           id="g389"
           clip-path="url(#clip42)">
          <g
             id="g387"
             fill="#000000"
             stroke="none"
             fill-rule="nonzero"
             fill-opacity="1.0000">
            <path
               id="path381"
               d="M 38.500 -62.406 L 38.500 0.0000 L 29.594 0.0000 L 29.594 -62.406 L 20.594 -62.406 Q 20.000 -62.406 18.797 -62.344 Q 17.594 -62.297 17.000 -62.297 L 3.5938 -62.297 L 3.5938 -68.797 L 64.406 -68.797 L 64.406 -62.297 L 51.000 -62.297 Q 50.406 -62.297 49.203 -62.344 Q 48.000 -62.406 47.406 -62.406 L 38.500 -62.406 z" />
            <title
               id="title383">T\left(x \right) \, = \,\left\{\begin{array}{ll} 1 + \frac{x}{2}&amp; : x &lt; 0\\ x + \frac{1}{x + 1}&amp; : x ≥ 0 \end{array}\right. </title>
            <desc
               id="desc385">Text text1: FormulaText(T, true, true)</desc>
          </g>
          <!-- drawing style -->
        </g>
        <!-- clip42 -->
      </g>
      <!-- transform -->
      <g
         id="g406"
         transform="matrix(.15000, 0.0000, 0.0000, .15000, 483.21, 376.75)">
        <clipPath
           id="clipeeb88809-532d-4fe4-b6d1-b6d00af102c7">
          <path
             id="path393"
             d="M -3221.4 -2511.7 L -3221.4 1481.7 L 4498.6 1481.7 L 4498.6 -2511.7 z" />
        </clipPath>
        <g
           id="g404"
           clip-path="url(#clip43)">
          <g
             id="g402"
             fill="#000000"
             stroke="none"
             fill-rule="nonzero"
             fill-opacity="1.0000">
            <path
               id="path396"
               d="M 27.094 -75.000 L 33.203 -75.000 Q 24.406 -66.203 20.094 -54.094 Q 15.703 -41.406 15.703 -25.000 Q 15.703 -15.797 17.141 -7.7969 Q 18.594 .20312 20.391 5.1406 Q 22.203 10.094 25.047 14.641 Q 27.906 19.203 29.453 21.000 Q 31.000 22.797 33.203 25.000 L 27.094 25.000 Q 7.9062 7.4062 7.9062 -25.000 Q 7.9062 -41.000 12.594 -53.594 Q 14.203 -57.906 16.203 -61.547 Q 18.203 -65.203 20.500 -67.953 Q 22.797 -70.703 24.000 -71.953 Q 25.203 -73.203 27.094 -75.000 z" />
            <title
               id="title398">T\left(x \right) \, = \,\left\{\begin{array}{ll} 1 + \frac{x}{2}&amp; : x &lt; 0\\ x + \frac{1}{x + 1}&amp; : x ≥ 0 \end{array}\right. </title>
            <desc
               id="desc400">Text text1: FormulaText(T, true, true)</desc>
          </g>
          <!-- drawing style -->
        </g>
        <!-- clip43 -->
      </g>
      <!-- transform -->
      <g
         id="g421"
         transform="matrix(.15000, 0.0000, 0.0000, .15000, 489.04, 376.75)">
        <clipPath
           id="clip5ffe72ee-0550-4882-8480-09e85de295da">
          <path
             id="path408"
             d="M -3260.3 -2511.7 L -3260.3 1481.7 L 4459.7 1481.7 L 4459.7 -2511.7 z" />
        </clipPath>
        <g
           id="g419"
           clip-path="url(#clip44)">
          <g
             id="g417"
             fill="#000000"
             stroke="none"
             fill-rule="nonzero"
             fill-opacity="1.0000">
            <path
               id="path411"
               d="M 26.000 -22.906 L 46.000 0.0000 L 37.703 0.0000 L 22.703 -18.797 L 8.2031 0.0000 L 0.0000 0.0000 L 19.406 -22.906 L .59375 -44.406 L 8.9062 -44.406 L 22.703 -27.906 L 36.094 -44.406 L 44.297 -44.406 L 26.000 -22.906 z" />
            <title
               id="title413">T\left(x \right) \, = \,\left\{\begin{array}{ll} 1 + \frac{x}{2}&amp; : x &lt; 0\\ x + \frac{1}{x + 1}&amp; : x ≥ 0 \end{array}\right. </title>
            <desc
               id="desc415">Text text1: FormulaText(T, true, true)</desc>
          </g>
          <!-- drawing style -->
        </g>
        <!-- clip44 -->
      </g>
      <!-- transform -->
      <g
         id="g436"
         transform="matrix(.15000, 0.0000, 0.0000, .15000, 495.96, 376.75)">
        <clipPath
           id="clip14bc8372-9842-4e9c-9046-2426be47e89e">
          <path
             id="path423"
             d="M -3306.4 -2511.7 L -3306.4 1481.7 L 4413.6 1481.7 L 4413.6 -2511.7 z" />
        </clipPath>
        <g
           id="g434"
           clip-path="url(#clip45)">
          <g
             id="g432"
             fill="#000000"
             stroke="none"
             fill-rule="nonzero"
             fill-opacity="1.0000">
            <path
               id="path426"
               d="M 11.703 25.000 L 5.5938 25.000 Q 14.406 16.203 18.703 4.0938 Q 23.094 -8.5938 23.094 -25.000 Q 23.094 -34.203 21.641 -42.203 Q 20.203 -50.203 18.391 -55.141 Q 16.594 -60.094 13.750 -64.641 Q 10.906 -69.203 9.3438 -71.000 Q 7.7969 -72.797 5.5938 -75.000 L 11.703 -75.000 Q 30.906 -57.406 30.906 -25.000 Q 30.906 -9.0000 26.203 3.5938 Q 24.594 7.9062 22.594 11.547 Q 20.594 15.203 18.297 17.953 Q 16.000 20.703 14.797 21.953 Q 13.594 23.203 11.703 25.000 z" />
            <title
               id="title428">T\left(x \right) \, = \,\left\{\begin{array}{ll} 1 + \frac{x}{2}&amp; : x &lt; 0\\ x + \frac{1}{x + 1}&amp; : x ≥ 0 \end{array}\right. </title>
            <desc
               id="desc430">Text text1: FormulaText(T, true, true)</desc>
          </g>
          <!-- drawing style -->
        </g>
        <!-- clip45 -->
      </g>
      <!-- transform -->
      <g
         id="g451"
         transform="matrix(.15000, 0.0000, 0.0000, .15000, 508.46, 376.75)">
        <clipPath
           id="clip15830509-14a7-427f-826e-0a26b5224765">
          <path
             id="path438"
             d="M -3389.7 -2511.7 L -3389.7 1481.7 L 4330.3 1481.7 L 4330.3 -2511.7 z" />
        </clipPath>
        <g
           id="g449"
           clip-path="url(#clip46)">
          <g
             id="g447"
             fill="#000000"
             stroke="none"
             fill-rule="nonzero"
             fill-opacity="1.0000">
            <path
               id="path441"
               d="M 68.703 -33.000 L 9.0000 -33.000 Q 5.5938 -33.000 5.5938 -35.000 Q 5.5938 -37.000 8.9062 -37.000 L 68.797 -37.000 Q 72.094 -37.000 72.094 -35.000 Q 72.094 -33.000 68.703 -33.000 z M 68.797 -13.000 L 8.9062 -13.000 Q 5.5938 -13.000 5.5938 -15.000 Q 5.5938 -17.000 9.0000 -17.000 L 68.703 -17.000 Q 72.094 -17.000 72.094 -15.000 Q 72.094 -13.000 68.797 -13.000 z" />
            <title
               id="title443">T\left(x \right) \, = \,\left\{\begin{array}{ll} 1 + \frac{x}{2}&amp; : x &lt; 0\\ x + \frac{1}{x + 1}&amp; : x ≥ 0 \end{array}\right. </title>
            <desc
               id="desc445">Text text1: FormulaText(T, true, true)</desc>
          </g>
          <!-- drawing style -->
        </g>
        <!-- clip46 -->
      </g>
      <!-- transform -->
      <g
         id="g466"
         transform="matrix(15.000, 0.0000, 0.0000, 15.000, 526.79, 337.00)">
        <clipPath
           id="clipa91be547-15ca-468e-965f-a4ed1f97720f">
          <path
             id="path453"
             d="M -35.119 -22.467 L -35.119 17.467 L 42.081 17.467 L 42.081 -22.467 z" />
        </clipPath>
        <g
           id="g464"
           clip-path="url(#clip47)">
          <g
             id="g462"
             fill="#000000"
             stroke="none"
             fill-rule="nonzero"
             fill-opacity="1.0000">
            <path
               id="path456"
               d="M .67922 9.3750E-4 Q .67578 9.3750E-4 .67391 .0029688 Q .58937 .046875 .52344 .11672 Q .45750 .18656 .42063 .27359 Q .38375 .36078 .38375 .45406 L .38375 .90094 L .38375 1.2008 L .38375 1.5008 L .38375 1.9350 Q .38375 1.9975 .37062 2.0622 Q .35750 2.1270 .33203 2.1836 Q .30672 2.2403 .26641 2.2905 Q .22609 2.3408 .17391 2.3780 Q .17000 2.3799 .17000 2.3849 L .17000 2.4161 Q .17000 2.4200 .17391 2.4219 Q .22609 2.4585 .26578 2.5080 Q .30562 2.5577 .33156 2.6152 Q .35750 2.6728 .37062 2.7378 Q .38375 2.8028 .38375 2.8663 L .38375 3.3008 L .38375 3.6008 L .38375 3.9008 L .38375 4.3458 Q .38375 4.4161 .40516 4.4835 Q .42672 4.5510 .46531 4.6093 Q .50391 4.6677 .55703 4.7157 Q .61031 4.7638 .67391 4.7971 Q .67578 4.7989 .67922 4.7989 L .71000 4.7989 Q .71297 4.7989 .71531 4.7964 Q .71781 4.7941 .71781 4.7911 L .71781 4.7599 Q .71781 4.7560 .71484 4.7530 Q .61375 4.6882 .55875 4.5775 Q .50391 4.4669 .50391 4.3439 L .50391 3.9008 L .50391 3.6008 L .50391 3.3008 L .50391 2.8638 Q .50391 2.7920 .48391 2.7241 Q .46391 2.6563 .42750 2.5960 Q .39109 2.5356 .33906 2.4845 Q .28719 2.4336 .22797 2.3999 Q .28906 2.3642 .34000 2.3147 Q .39109 2.2652 .42750 2.2045 Q .46391 2.1441 .48391 2.0760 Q .50391 2.0078 .50391 1.9370 L .50391 1.5008 L .50391 1.2008 L .50391 .90094 L .50391 .45609 Q .50391 .39703 .51797 .33625 Q .53219 .27547 .55859 .22297 Q .58500 .17047 .62469 .12469 Q .66453 .079063 .71484 .046875 Q .71781 .043906 .71781 .041094 L .71781 .0098438 Q .71781 .0059375 .71531 .0034375 Q .71297 9.3750E-4 .71000 9.3750E-4 z" />
            <title
               id="title458">T\left(x \right) \, = \,\left\{\begin{array}{ll} 1 + \frac{x}{2}&amp; : x &lt; 0\\ x + \frac{1}{x + 1}&amp; : x ≥ 0 \end{array}\right. </title>
            <desc
               id="desc460">Text text1: FormulaText(T, true, true)</desc>
          </g>
          <!-- drawing style -->
        </g>
        <!-- clip47 -->
      </g>
      <!-- transform -->
      <g
         id="g481"
         transform="matrix(.15000, 0.0000, 0.0000, .15000, 547.63, 357.21)">
        <clipPath
           id="clip3013abef-67a0-4473-b2a2-be5f7c9a5024">
          <path
             id="path468"
             d="M -3650.8 -2381.4 L -3650.8 1611.9 L 4069.2 1611.9 L 4069.2 -2381.4 z" />
        </clipPath>
        <g
           id="g479"
           clip-path="url(#clip48)">
          <g
             id="g477"
             fill="#000000"
             stroke="none"
             fill-rule="nonzero"
             fill-opacity="1.0000">
            <path
               id="path471"
               d="M 29.906 -67.797 L 29.906 -5.7969 L 42.406 -5.7969 L 42.406 0.0000 L 9.5000 0.0000 L 9.5000 -5.7969 L 22.000 -5.7969 L 22.000 -57.797 Q 16.906 -55.594 8.9062 -55.406 L 8.9062 -61.203 Q 22.000 -61.703 27.906 -67.797 L 29.906 -67.797 z" />
            <title
               id="title473">T\left(x \right) \, = \,\left\{\begin{array}{ll} 1 + \frac{x}{2}&amp; : x &lt; 0\\ x + \frac{1}{x + 1}&amp; : x ≥ 0 \end{array}\right. </title>
            <desc
               id="desc475">Text text1: FormulaText(T, true, true)</desc>
          </g>
          <!-- drawing style -->
        </g>
        <!-- clip48 -->
      </g>
      <!-- transform -->
      <g
         id="g496"
         transform="matrix(.15000, 0.0000, 0.0000, .15000, 558.46, 357.21)">
        <clipPath
           id="clip87e0b5e0-236b-49ea-8d70-b546cd45beb8">
          <path
             id="path483"
             d="M -3723.1 -2381.4 L -3723.1 1611.9 L 3996.9 1611.9 L 3996.9 -2381.4 z" />
        </clipPath>
        <g
           id="g494"
           clip-path="url(#clip49)">
          <g
             id="g492"
             fill="#000000"
             stroke="none"
             fill-rule="nonzero"
             fill-opacity="1.0000">
            <path
               id="path486"
               d="M 40.906 -23.000 L 40.906 5.0000 Q 40.906 8.2969 38.906 8.2969 Q 36.906 8.2969 36.906 5.0000 L 36.906 -23.000 L 8.9062 -23.000 Q 5.5938 -23.000 5.5938 -25.000 Q 5.5938 -27.000 8.9062 -27.000 L 36.906 -27.000 L 36.906 -55.000 Q 36.906 -58.297 38.906 -58.297 Q 40.906 -58.297 40.906 -55.000 L 40.906 -27.000 L 68.797 -27.000 Q 72.094 -27.000 72.094 -25.000 Q 72.094 -23.000 68.797 -23.000 L 40.906 -23.000 z" />
            <title
               id="title488">T\left(x \right) \, = \,\left\{\begin{array}{ll} 1 + \frac{x}{2}&amp; : x &lt; 0\\ x + \frac{1}{x + 1}&amp; : x ≥ 0 \end{array}\right. </title>
            <desc
               id="desc490">Text text1: FormulaText(T, true, true)</desc>
          </g>
          <!-- drawing style -->
        </g>
        <!-- clip49 -->
      </g>
      <!-- transform -->
      <g
         id="g511"
         transform="matrix(.15000, 0.0000, 0.0000, .15000, 574.95, 347.06)">
        <clipPath
           id="clipdaddcc22-54a9-4aa2-a1ca-06a1c186d834">
          <path
             id="path498"
             d="M -3833.0 -2313.8 L -3833.0 1679.6 L 3887.0 1679.6 L 3887.0 -2313.8 z" />
        </clipPath>
        <g
           id="g509"
           clip-path="url(#clip50)">
          <g
             id="g507"
             fill="#000000"
             stroke="none"
             fill-rule="nonzero"
             fill-opacity="1.0000">
            <path
               id="path501"
               d="M 26.000 -22.906 L 46.000 0.0000 L 37.703 0.0000 L 22.703 -18.797 L 8.2031 0.0000 L 0.0000 0.0000 L 19.406 -22.906 L .59375 -44.406 L 8.9062 -44.406 L 22.703 -27.906 L 36.094 -44.406 L 44.297 -44.406 L 26.000 -22.906 z" />
            <title
               id="title503">T\left(x \right) \, = \,\left\{\begin{array}{ll} 1 + \frac{x}{2}&amp; : x &lt; 0\\ x + \frac{1}{x + 1}&amp; : x ≥ 0 \end{array}\right. </title>
            <desc
               id="desc505">Text text1: FormulaText(T, true, true)</desc>
          </g>
          <!-- drawing style -->
        </g>
        <!-- clip50 -->
      </g>
      <!-- transform -->
      <g
         id="g526"
         transform="matrix(15.000, 0.0000, 0.0000, 15.000, 0.0000, 0.0000)">
        <clipPath
           id="clipe4415b3c-ba89-4f5e-a12a-02508d9eb28e">
          <path
             id="path513"
             d="M 0.0000 0.0000 L 0.0000 39.933 L 77.200 39.933 L 77.200 0.0000 z" />
        </clipPath>
        <g
           id="g524"
           clip-path="url(#clip51)">
          <g
             id="g522"
             fill="#000000"
             stroke="none"
             fill-rule="nonzero"
             fill-opacity="1.0000">
            <path
               id="path516"
               d="M 38.310 23.544 L 38.810 23.544 L 38.810 23.584 L 38.310 23.584 L 38.310 23.544 z" />
            <title
               id="title518">T\left(x \right) \, = \,\left\{\begin{array}{ll} 1 + \frac{x}{2}&amp; : x &lt; 0\\ x + \frac{1}{x + 1}&amp; : x ≥ 0 \end{array}\right. </title>
            <desc
               id="desc520">Text text1: FormulaText(T, true, true)</desc>
          </g>
          <!-- drawing style -->
        </g>
        <!-- clip51 -->
      </g>
      <!-- transform -->
      <g
         id="g541"
         transform="matrix(.15000, 0.0000, 0.0000, .15000, 574.65, 367.50)">
        <clipPath
           id="clip0bfa0050-9a55-4ef4-bfbe-ab7062823395">
          <path
             id="path528"
             d="M -3831.0 -2450.0 L -3831.0 1543.3 L 3889.0 1543.3 L 3889.0 -2450.0 z" />
        </clipPath>
        <g
           id="g539"
           clip-path="url(#clip52)">
          <g
             id="g537"
             fill="#000000"
             stroke="none"
             fill-rule="nonzero"
             fill-opacity="1.0000">
            <path
               id="path531"
               d="M 17.406 -18.797 L 25.094 -25.906 Q 28.094 -29.000 29.547 -30.547 Q 31.000 -32.094 33.000 -34.891 Q 35.000 -37.703 35.844 -40.391 Q 36.703 -43.094 36.703 -46.094 Q 36.703 -52.297 32.797 -56.844 Q 28.906 -61.406 22.203 -61.406 Q 16.094 -61.406 13.141 -57.297 Q 10.203 -53.203 8.2969 -45.906 Q 6.5938 -48.406 6.0938 -48.797 Q 6.0000 -48.906 5.4531 -49.656 Q 4.9062 -50.406 4.2031 -51.406 Q 8.7969 -67.797 23.594 -67.797 Q 33.203 -67.797 39.047 -61.547 Q 44.906 -55.297 44.906 -46.297 Q 44.906 -42.406 43.156 -38.656 Q 41.406 -34.906 39.797 -33.047 Q 38.203 -31.203 35.000 -28.000 Q 34.000 -27.094 30.547 -24.094 Q 27.094 -21.094 26.094 -20.203 Q 25.406 -19.594 19.750 -14.094 Q 14.094 -8.5938 12.203 -7.0000 L 23.094 -7.0000 Q 23.703 -7.0000 24.891 -7.0469 Q 26.094 -7.0938 26.703 -7.0938 L 44.906 -7.0938 L 44.906 0.0000 L 5.0000 0.0000 L 5.0000 -6.4062 L 17.406 -18.797 z" />
            <title
               id="title533">T\left(x \right) \, = \,\left\{\begin{array}{ll} 1 + \frac{x}{2}&amp; : x &lt; 0\\ x + \frac{1}{x + 1}&amp; : x ≥ 0 \end{array}\right. </title>
            <desc
               id="desc535">Text text1: FormulaText(T, true, true)</desc>
          </g>
          <!-- drawing style -->
        </g>
        <!-- clip52 -->
      </g>
      <!-- transform -->
      <g
         id="g556"
         transform="matrix(.15000, 0.0000, 0.0000, .15000, 623.02, 357.21)">
        <clipPath
           id="clipb56c7532-6f02-4fa8-8541-87831ce5caa3">
          <path
             id="path543"
             d="M -4153.4 -2381.4 L -4153.4 1611.9 L 3566.6 1611.9 L 3566.6 -2381.4 z" />
        </clipPath>
        <g
           id="g554"
           clip-path="url(#clip53)">
          <g
             id="g552"
             fill="#000000"
             stroke="none"
             fill-rule="nonzero"
             fill-opacity="1.0000">
            <path
               id="path546"
               d="M 18.000 -44.406 L 18.000 -36.094 L 9.7031 -36.094 L 9.7031 -44.406 L 18.000 -44.406 z M 9.7031 -8.2969 L 18.000 -8.2969 L 18.000 0.0000 L 9.7031 0.0000 L 9.7031 -8.2969 z" />
            <title
               id="title548">T\left(x \right) \, = \,\left\{\begin{array}{ll} 1 + \frac{x}{2}&amp; : x &lt; 0\\ x + \frac{1}{x + 1}&amp; : x ≥ 0 \end{array}\right. </title>
            <desc
               id="desc550">Text text1: FormulaText(T, true, true)</desc>
          </g>
          <!-- drawing style -->
        </g>
        <!-- clip53 -->
      </g>
      <!-- transform -->
      <g
         id="g571"
         transform="matrix(.15000, 0.0000, 0.0000, .15000, 631.35, 357.21)">
        <clipPath
           id="clip4e0192f9-bdcc-40fc-9046-a176814dfa8b">
          <path
             id="path558"
             d="M -4209.0 -2381.4 L -4209.0 1611.9 L 3511.0 1611.9 L 3511.0 -2381.4 z" />
        </clipPath>
        <g
           id="g569"
           clip-path="url(#clip54)">
          <g
             id="g567"
             fill="#000000"
             stroke="none"
             fill-rule="nonzero"
             fill-opacity="1.0000">
            <path
               id="path561"
               d="M 26.000 -22.906 L 46.000 0.0000 L 37.703 0.0000 L 22.703 -18.797 L 8.2031 0.0000 L 0.0000 0.0000 L 19.406 -22.906 L .59375 -44.406 L 8.9062 -44.406 L 22.703 -27.906 L 36.094 -44.406 L 44.297 -44.406 L 26.000 -22.906 z" />
            <title
               id="title563">T\left(x \right) \, = \,\left\{\begin{array}{ll} 1 + \frac{x}{2}&amp; : x &lt; 0\\ x + \frac{1}{x + 1}&amp; : x ≥ 0 \end{array}\right. </title>
            <desc
               id="desc565">Text text1: FormulaText(T, true, true)</desc>
          </g>
          <!-- drawing style -->
        </g>
        <!-- clip54 -->
      </g>
      <!-- transform -->
      <g
         id="g586"
         transform="matrix(.15000, 0.0000, 0.0000, .15000, 642.43, 357.21)">
        <clipPath
           id="clip928c5434-9475-41ca-b5b8-5ac24a1e1ad1">
          <path
             id="path573"
             d="M -4282.9 -2381.4 L -4282.9 1611.9 L 3437.1 1611.9 L 3437.1 -2381.4 z" />
        </clipPath>
        <g
           id="g584"
           clip-path="url(#clip55)">
          <g
             id="g582"
             fill="#000000"
             stroke="none"
             fill-rule="nonzero"
             fill-opacity="1.0000">
            <path
               id="path576"
               d="M 67.500 -49.797 L 15.000 -25.000 L 67.500 -.20312 Q 69.406 .79688 69.406 2.0000 Q 69.406 3.5938 67.906 3.9062 Q 67.594 4.0000 67.406 4.0000 Q 66.906 4.0000 65.594 3.2969 L 10.203 -22.797 Q 8.2969 -23.703 8.2969 -25.000 Q 8.2969 -26.297 10.203 -27.203 L 65.594 -53.297 Q 66.906 -54.000 67.406 -54.000 Q 69.000 -54.000 69.297 -52.500 Q 69.406 -52.203 69.406 -52.000 Q 69.406 -50.797 67.500 -49.797 z" />
            <title
               id="title578">T\left(x \right) \, = \,\left\{\begin{array}{ll} 1 + \frac{x}{2}&amp; : x &lt; 0\\ x + \frac{1}{x + 1}&amp; : x ≥ 0 \end{array}\right. </title>
            <desc
               id="desc580">Text text1: FormulaText(T, true, true)</desc>
          </g>
          <!-- drawing style -->
        </g>
        <!-- clip55 -->
      </g>
      <!-- transform -->
      <g
         id="g601"
         transform="matrix(.15000, 0.0000, 0.0000, .15000, 658.27, 357.21)">
        <clipPath
           id="clipe7905bdd-cc28-43c5-b7e8-d0811bbdc1b0">
          <path
             id="path588"
             d="M -4388.4 -2381.4 L -4388.4 1611.9 L 3331.6 1611.9 L 3331.6 -2381.4 z" />
        </clipPath>
        <g
           id="g599"
           clip-path="url(#clip56)">
          <g
             id="g597"
             fill="#000000"
             stroke="none"
             fill-rule="nonzero"
             fill-opacity="1.0000">
            <path
               id="path591"
               d="M 45.703 -32.594 Q 45.703 -17.500 41.703 -8.7969 Q 39.297 -3.5938 34.844 -.68750 Q 30.406 2.2031 24.906 2.2031 Q 21.703 2.2031 18.750 1.2031 Q 15.797 .20312 12.641 -2.6875 Q 9.5000 -5.5938 7.5938 -10.094 Q 4.2031 -18.406 4.2031 -32.594 Q 4.2031 -47.797 8.0000 -56.203 Q 10.797 -62.406 15.391 -65.094 Q 20.000 -67.797 25.000 -67.797 Q 29.406 -67.797 33.844 -65.438 Q 38.297 -63.094 41.094 -57.906 Q 45.703 -49.000 45.703 -32.594 z M 25.000 -3.9062 Q 33.000 -3.9062 36.094 -14.594 Q 37.906 -20.906 37.906 -33.797 Q 37.906 -46.703 36.000 -52.297 Q 35.406 -53.797 34.953 -54.641 Q 34.500 -55.500 33.203 -57.500 Q 31.906 -59.500 29.750 -60.594 Q 27.594 -61.703 24.906 -61.703 Q 16.906 -61.703 13.703 -51.594 Q 12.000 -46.094 12.000 -33.797 Q 12.000 -21.000 13.703 -14.906 Q 16.797 -3.9062 25.000 -3.9062 z" />
            <title
               id="title593">T\left(x \right) \, = \,\left\{\begin{array}{ll} 1 + \frac{x}{2}&amp; : x &lt; 0\\ x + \frac{1}{x + 1}&amp; : x ≥ 0 \end{array}\right. </title>
            <desc
               id="desc595">Text text1: FormulaText(T, true, true)</desc>
          </g>
          <!-- drawing style -->
        </g>
        <!-- clip56 -->
      </g>
      <!-- transform -->
      <g
         id="g616"
         transform="matrix(.15000, 0.0000, 0.0000, .15000, 547.63, 394.15)">
        <clipPath
           id="clipd3f02764-0c81-4c10-b876-c96bf07ae152">
          <path
             id="path603"
             d="M -3650.8 -2627.7 L -3650.8 1365.7 L 4069.2 1365.7 L 4069.2 -2627.7 z" />
        </clipPath>
        <g
           id="g614"
           clip-path="url(#clip57)">
          <g
             id="g612"
             fill="#000000"
             stroke="none"
             fill-rule="nonzero"
             fill-opacity="1.0000">
            <path
               id="path606"
               d="M 26.000 -22.906 L 46.000 0.0000 L 37.703 0.0000 L 22.703 -18.797 L 8.2031 0.0000 L 0.0000 0.0000 L 19.406 -22.906 L .59375 -44.406 L 8.9062 -44.406 L 22.703 -27.906 L 36.094 -44.406 L 44.297 -44.406 L 26.000 -22.906 z" />
            <title
               id="title608">T\left(x \right) \, = \,\left\{\begin{array}{ll} 1 + \frac{x}{2}&amp; : x &lt; 0\\ x + \frac{1}{x + 1}&amp; : x ≥ 0 \end{array}\right. </title>
            <desc
               id="desc610">Text text1: FormulaText(T, true, true)</desc>
          </g>
          <!-- drawing style -->
        </g>
        <!-- clip57 -->
      </g>
      <!-- transform -->
      <g
         id="g631"
         transform="matrix(.15000, 0.0000, 0.0000, .15000, 557.88, 394.15)">
        <clipPath
           id="clip4f7be449-bff5-473c-b087-abfc6d9933ac">
          <path
             id="path618"
             d="M -3719.2 -2627.7 L -3719.2 1365.7 L 4000.8 1365.7 L 4000.8 -2627.7 z" />
        </clipPath>
        <g
           id="g629"
           clip-path="url(#clip58)">
          <g
             id="g627"
             fill="#000000"
             stroke="none"
             fill-rule="nonzero"
             fill-opacity="1.0000">
            <path
               id="path621"
               d="M 40.906 -23.000 L 40.906 5.0000 Q 40.906 8.2969 38.906 8.2969 Q 36.906 8.2969 36.906 5.0000 L 36.906 -23.000 L 8.9062 -23.000 Q 5.5938 -23.000 5.5938 -25.000 Q 5.5938 -27.000 8.9062 -27.000 L 36.906 -27.000 L 36.906 -55.000 Q 36.906 -58.297 38.906 -58.297 Q 40.906 -58.297 40.906 -55.000 L 40.906 -27.000 L 68.797 -27.000 Q 72.094 -27.000 72.094 -25.000 Q 72.094 -23.000 68.797 -23.000 L 40.906 -23.000 z" />
            <title
               id="title623">T\left(x \right) \, = \,\left\{\begin{array}{ll} 1 + \frac{x}{2}&amp; : x &lt; 0\\ x + \frac{1}{x + 1}&amp; : x ≥ 0 \end{array}\right. </title>
            <desc
               id="desc625">Text text1: FormulaText(T, true, true)</desc>
          </g>
          <!-- drawing style -->
        </g>
        <!-- clip58 -->
      </g>
      <!-- transform -->
      <g
         id="g646"
         transform="matrix(.15000, 0.0000, 0.0000, .15000, 586.70, 384.00)">
        <clipPath
           id="clipf7afbb80-17e9-4c4f-9c22-fc351dd88f2b">
          <path
             id="path633"
             d="M -3911.3 -2560.0 L -3911.3 1433.3 L 3808.7 1433.3 L 3808.7 -2560.0 z" />
        </clipPath>
        <g
           id="g644"
           clip-path="url(#clip59)">
          <g
             id="g642"
             fill="#000000"
             stroke="none"
             fill-rule="nonzero"
             fill-opacity="1.0000">
            <path
               id="path636"
               d="M 29.906 -67.797 L 29.906 -5.7969 L 42.406 -5.7969 L 42.406 0.0000 L 9.5000 0.0000 L 9.5000 -5.7969 L 22.000 -5.7969 L 22.000 -57.797 Q 16.906 -55.594 8.9062 -55.406 L 8.9062 -61.203 Q 22.000 -61.703 27.906 -67.797 L 29.906 -67.797 z" />
            <title
               id="title638">T\left(x \right) \, = \,\left\{\begin{array}{ll} 1 + \frac{x}{2}&amp; : x &lt; 0\\ x + \frac{1}{x + 1}&amp; : x ≥ 0 \end{array}\right. </title>
            <desc
               id="desc640">Text text1: FormulaText(T, true, true)</desc>
          </g>
          <!-- drawing style -->
        </g>
        <!-- clip59 -->
      </g>
      <!-- transform -->
      <g
         id="g661"
         transform="matrix(15.000, 0.0000, 0.0000, 15.000, 0.0000, 0.0000)">
        <clipPath
           id="clip1184df17-7c8a-46f0-a0df-073e744d62b8">
          <path
             id="path648"
             d="M 0.0000 0.0000 L 0.0000 39.933 L 77.200 39.933 L 77.200 0.0000 z" />
        </clipPath>
        <g
           id="g659"
           clip-path="url(#clip60)">
          <g
             id="g657"
             fill="#000000"
             stroke="none"
             fill-rule="nonzero"
             fill-opacity="1.0000">
            <path
               id="path651"
               d="M 38.271 26.007 L 40.455 26.007 L 40.455 26.047 L 38.271 26.047 L 38.271 26.007 z" />
            <title
               id="title653">T\left(x \right) \, = \,\left\{\begin{array}{ll} 1 + \frac{x}{2}&amp; : x &lt; 0\\ x + \frac{1}{x + 1}&amp; : x ≥ 0 \end{array}\right. </title>
            <desc
               id="desc655">Text text1: FormulaText(T, true, true)</desc>
          </g>
          <!-- drawing style -->
        </g>
        <!-- clip60 -->
      </g>
      <!-- transform -->
      <g
         id="g676"
         transform="matrix(.15000, 0.0000, 0.0000, .15000, 574.07, 404.44)">
        <clipPath
           id="clip06b49116-516b-4f92-9216-3aa163c8bda4">
          <path
             id="path663"
             d="M -3827.1 -2696.2 L -3827.1 1297.1 L 3892.9 1297.1 L 3892.9 -2696.2 z" />
        </clipPath>
        <g
           id="g674"
           clip-path="url(#clip61)">
          <g
             id="g672"
             fill="#000000"
             stroke="none"
             fill-rule="nonzero"
             fill-opacity="1.0000">
            <path
               id="path666"
               d="M 26.000 -22.906 L 46.000 0.0000 L 37.703 0.0000 L 22.703 -18.797 L 8.2031 0.0000 L 0.0000 0.0000 L 19.406 -22.906 L .59375 -44.406 L 8.9062 -44.406 L 22.703 -27.906 L 36.094 -44.406 L 44.297 -44.406 L 26.000 -22.906 z" />
            <title
               id="title668">T\left(x \right) \, = \,\left\{\begin{array}{ll} 1 + \frac{x}{2}&amp; : x &lt; 0\\ x + \frac{1}{x + 1}&amp; : x ≥ 0 \end{array}\right. </title>
            <desc
               id="desc670">Text text1: FormulaText(T, true, true)</desc>
          </g>
          <!-- drawing style -->
        </g>
        <!-- clip61 -->
      </g>
      <!-- transform -->
      <g
         id="g691"
         transform="matrix(.15000, 0.0000, 0.0000, .15000, 584.32, 404.44)">
        <clipPath
           id="clipdeb165ed-181d-48a7-8da5-230081058c91">
          <path
             id="path678"
             d="M -3895.5 -2696.2 L -3895.5 1297.1 L 3824.5 1297.1 L 3824.5 -2696.2 z" />
        </clipPath>
        <g
           id="g689"
           clip-path="url(#clip62)">
          <g
             id="g687"
             fill="#000000"
             stroke="none"
             fill-rule="nonzero"
             fill-opacity="1.0000">
            <path
               id="path681"
               d="M 40.906 -23.000 L 40.906 5.0000 Q 40.906 8.2969 38.906 8.2969 Q 36.906 8.2969 36.906 5.0000 L 36.906 -23.000 L 8.9062 -23.000 Q 5.5938 -23.000 5.5938 -25.000 Q 5.5938 -27.000 8.9062 -27.000 L 36.906 -27.000 L 36.906 -55.000 Q 36.906 -58.297 38.906 -58.297 Q 40.906 -58.297 40.906 -55.000 L 40.906 -27.000 L 68.797 -27.000 Q 72.094 -27.000 72.094 -25.000 Q 72.094 -23.000 68.797 -23.000 L 40.906 -23.000 z" />
            <title
               id="title683">T\left(x \right) \, = \,\left\{\begin{array}{ll} 1 + \frac{x}{2}&amp; : x &lt; 0\\ x + \frac{1}{x + 1}&amp; : x ≥ 0 \end{array}\right. </title>
            <desc
               id="desc685">Text text1: FormulaText(T, true, true)</desc>
          </g>
          <!-- drawing style -->
        </g>
        <!-- clip62 -->
      </g>
      <!-- transform -->
      <g
         id="g706"
         transform="matrix(.15000, 0.0000, 0.0000, .15000, 599.32, 404.44)">
        <clipPath
           id="clip50971272-1d3a-4452-911b-6307b3370dab">
          <path
             id="path693"
             d="M -3995.5 -2696.2 L -3995.5 1297.1 L 3724.5 1297.1 L 3724.5 -2696.2 z" />
        </clipPath>
        <g
           id="g704"
           clip-path="url(#clip63)">
          <g
             id="g702"
             fill="#000000"
             stroke="none"
             fill-rule="nonzero"
             fill-opacity="1.0000">
            <path
               id="path696"
               d="M 29.906 -67.797 L 29.906 -5.7969 L 42.406 -5.7969 L 42.406 0.0000 L 9.5000 0.0000 L 9.5000 -5.7969 L 22.000 -5.7969 L 22.000 -57.797 Q 16.906 -55.594 8.9062 -55.406 L 8.9062 -61.203 Q 22.000 -61.703 27.906 -67.797 L 29.906 -67.797 z" />
            <title
               id="title698">T\left(x \right) \, = \,\left\{\begin{array}{ll} 1 + \frac{x}{2}&amp; : x &lt; 0\\ x + \frac{1}{x + 1}&amp; : x ≥ 0 \end{array}\right. </title>
            <desc
               id="desc700">Text text1: FormulaText(T, true, true)</desc>
          </g>
          <!-- drawing style -->
        </g>
        <!-- clip63 -->
      </g>
      <!-- transform -->
      <g
         id="g721"
         transform="matrix(.15000, 0.0000, 0.0000, .15000, 623.02, 394.15)">
        <clipPath
           id="clipc14dbb31-01a7-4d5b-8f44-ed41cf3c71e8">
          <path
             id="path708"
             d="M -4153.4 -2627.7 L -4153.4 1365.7 L 3566.6 1365.7 L 3566.6 -2627.7 z" />
        </clipPath>
        <g
           id="g719"
           clip-path="url(#clip64)">
          <g
             id="g717"
             fill="#000000"
             stroke="none"
             fill-rule="nonzero"
             fill-opacity="1.0000">
            <path
               id="path711"
               d="M 18.000 -44.406 L 18.000 -36.094 L 9.7031 -36.094 L 9.7031 -44.406 L 18.000 -44.406 z M 9.7031 -8.2969 L 18.000 -8.2969 L 18.000 0.0000 L 9.7031 0.0000 L 9.7031 -8.2969 z" />
            <title
               id="title713">T\left(x \right) \, = \,\left\{\begin{array}{ll} 1 + \frac{x}{2}&amp; : x &lt; 0\\ x + \frac{1}{x + 1}&amp; : x ≥ 0 \end{array}\right. </title>
            <desc
               id="desc715">Text text1: FormulaText(T, true, true)</desc>
          </g>
          <!-- drawing style -->
        </g>
        <!-- clip64 -->
      </g>
      <!-- transform -->
      <g
         id="g736"
         transform="matrix(.15000, 0.0000, 0.0000, .15000, 631.35, 394.15)">
        <clipPath
           id="clip58614e92-5905-4777-b695-8cfee67c85d4">
          <path
             id="path723"
             d="M -4209.0 -2627.7 L -4209.0 1365.7 L 3511.0 1365.7 L 3511.0 -2627.7 z" />
        </clipPath>
        <g
           id="g734"
           clip-path="url(#clip65)">
          <g
             id="g732"
             fill="#000000"
             stroke="none"
             fill-rule="nonzero"
             fill-opacity="1.0000">
            <path
               id="path726"
               d="M 26.000 -22.906 L 46.000 0.0000 L 37.703 0.0000 L 22.703 -18.797 L 8.2031 0.0000 L 0.0000 0.0000 L 19.406 -22.906 L .59375 -44.406 L 8.9062 -44.406 L 22.703 -27.906 L 36.094 -44.406 L 44.297 -44.406 L 26.000 -22.906 z" />
            <title
               id="title728">T\left(x \right) \, = \,\left\{\begin{array}{ll} 1 + \frac{x}{2}&amp; : x &lt; 0\\ x + \frac{1}{x + 1}&amp; : x ≥ 0 \end{array}\right. </title>
            <desc
               id="desc730">Text text1: FormulaText(T, true, true)</desc>
          </g>
          <!-- drawing style -->
        </g>
        <!-- clip65 -->
      </g>
      <!-- transform -->
      <g
         id="g751"
         transform="matrix(.15000, 0.0000, 0.0000, .15000, 642.43, 394.15)">
        <clipPath
           id="clipf38995ea-9090-4728-85ad-8b8a82cfd165">
          <path
             id="path738"
             d="M -4282.9 -2627.7 L -4282.9 1365.7 L 3437.1 1365.7 L 3437.1 -2627.7 z" />
        </clipPath>
        <g
           id="g749"
           clip-path="url(#clip66)">
          <g
             id="g747"
             fill="#000000"
             stroke="none"
             fill-rule="nonzero"
             fill-opacity="1.0000">
            <path
               id="path741"
               d="M 67.500 -32.500 L 12.000 -6.2969 Q 10.906 -5.7031 10.297 -5.7031 Q 8.7031 -5.7031 8.4062 -7.2031 Q 8.2969 -7.5000 8.2969 -7.7031 Q 8.2969 -9.0000 10.094 -9.7969 L 62.703 -34.703 L 10.203 -59.500 Q 8.5000 -60.797 8.2969 -61.594 Q 8.2969 -63.203 9.7969 -63.500 Q 10.094 -63.594 10.297 -63.594 Q 10.797 -63.594 12.094 -62.906 L 67.500 -36.797 Q 69.203 -35.906 69.406 -34.594 Q 69.406 -33.297 67.500 -32.500 z M 66.094 13.703 L 11.594 13.703 Q 8.4062 13.703 8.2969 11.703 Q 8.2969 9.7031 11.703 9.7031 L 66.000 9.7031 Q 69.203 9.7031 69.406 11.703 Q 69.406 13.703 66.094 13.703 z" />
            <title
               id="title743">T\left(x \right) \, = \,\left\{\begin{array}{ll} 1 + \frac{x}{2}&amp; : x &lt; 0\\ x + \frac{1}{x + 1}&amp; : x ≥ 0 \end{array}\right. </title>
            <desc
               id="desc745">Text text1: FormulaText(T, true, true)</desc>
          </g>
          <!-- drawing style -->
        </g>
        <!-- clip66 -->
      </g>
      <!-- transform -->
      <g
         id="g766"
         transform="matrix(.15000, 0.0000, 0.0000, .15000, 658.27, 394.15)">
        <clipPath
           id="clip547d0070-0224-4fb1-957e-4c2ddd5fff3b">
          <path
             id="path753"
             d="M -4388.4 -2627.7 L -4388.4 1365.7 L 3331.6 1365.7 L 3331.6 -2627.7 z" />
        </clipPath>
        <g
           id="g764"
           clip-path="url(#clip67)">
          <g
             id="g762"
             fill="#000000"
             stroke="none"
             fill-rule="nonzero"
             fill-opacity="1.0000">
            <path
               id="path756"
               d="M 45.703 -32.594 Q 45.703 -17.500 41.703 -8.7969 Q 39.297 -3.5938 34.844 -.68750 Q 30.406 2.2031 24.906 2.2031 Q 21.703 2.2031 18.750 1.2031 Q 15.797 .20312 12.641 -2.6875 Q 9.5000 -5.5938 7.5938 -10.094 Q 4.2031 -18.406 4.2031 -32.594 Q 4.2031 -47.797 8.0000 -56.203 Q 10.797 -62.406 15.391 -65.094 Q 20.000 -67.797 25.000 -67.797 Q 29.406 -67.797 33.844 -65.438 Q 38.297 -63.094 41.094 -57.906 Q 45.703 -49.000 45.703 -32.594 z M 25.000 -3.9062 Q 33.000 -3.9062 36.094 -14.594 Q 37.906 -20.906 37.906 -33.797 Q 37.906 -46.703 36.000 -52.297 Q 35.406 -53.797 34.953 -54.641 Q 34.500 -55.500 33.203 -57.500 Q 31.906 -59.500 29.750 -60.594 Q 27.594 -61.703 24.906 -61.703 Q 16.906 -61.703 13.703 -51.594 Q 12.000 -46.094 12.000 -33.797 Q 12.000 -21.000 13.703 -14.906 Q 16.797 -3.9062 25.000 -3.9062 z" />
            <title
               id="title758">T\left(x \right) \, = \,\left\{\begin{array}{ll} 1 + \frac{x}{2}&amp; : x &lt; 0\\ x + \frac{1}{x + 1}&amp; : x ≥ 0 \end{array}\right. </title>
            <desc
               id="desc760">Text text1: FormulaText(T, true, true)</desc>
          </g>
          <!-- drawing style -->
        </g>
        <!-- clip67 -->
      </g>
      <!-- transform -->
    </g>
    <!-- layer0 -->
  </g>
  <!-- default stroke -->
</svg>
